<?xml version="1.0" encoding="UTF-8"?>
<svg style="isolation:isolate" viewBox="0 0 1370 770" xmlns="http://www.w3.org/2000/svg">
<g style="isolation:isolate">
<g style="isolation:isolate">
<line x1="597" x2="597" y1="330" y2="321.11" stroke="#ef4339" stroke-width="3" vector-effect="non-scaling-stroke"/>
<g fill="#ef4339">
<path d="m597 298.89l-13 22.109s4.109 4 13 4l13-4-13-22.109z"/>
<path d="m597 293.34l-10 16.665s1.668 3 10 3l10-3-10-16.665z"/>
<path d="m597 290l-7 10s1.445 2 7 2l7-2-7-10z"/>
</g>
<path d="m605.59 313.5l-1.021-1.735c-1.51 0.653-3.886 1.239-7.567 1.239s-6.057-0.586-7.567-1.239l-1.021 1.735c1.783 0.816 4.492 1.504 8.588 1.504s6.805-0.688 8.588-1.504zm-2.751-10.434l-1.046-1.743c-1.075 0.372-2.614 0.681-4.791 0.681s-3.716-0.309-4.791-0.682l-1.046 1.743c1.324 0.52 3.201 0.939 5.837 0.939s4.513-0.419 5.837-0.938z" fill="#fd655d"/>
<line x1="180" x2="180" y1="280" y2="271.11" stroke="#ef4339" stroke-width="3" vector-effect="non-scaling-stroke"/>
<g fill="#ef4339">
<path d="m180 248.89l-13 22.109s4.109 4 13 4l13-4-13-22.109z"/>
<path d="m180 243.34l-10 16.665s1.668 3 10 3l10-3-10-16.665z"/>
<path d="m180 240l-7 10s1.445 2 7 2l7-2-7-10z"/>
</g>
<path d="m188.59 263.5l-1.021-1.735c-1.51 0.653-3.886 1.239-7.567 1.239s-6.057-0.586-7.567-1.239l-1.021 1.735c1.783 0.816 4.492 1.504 8.588 1.504s6.805-0.688 8.588-1.504zm-2.751-10.434l-1.046-1.743c-1.075 0.372-2.614 0.681-4.791 0.681s-3.716-0.309-4.791-0.682l-1.046 1.743c1.324 0.52 3.201 0.939 5.837 0.939s4.513-0.419 5.837-0.938z" fill="#fd655d"/>
<line x1="127" x2="127" y1="250" y2="241.11" stroke="#ef4339" stroke-width="3" vector-effect="non-scaling-stroke"/>
<g fill="#ef4339">
<path d="m127 218.89l-13 22.109s4.109 4 13 4l13-4-13-22.109z"/>
<path d="m127 213.34l-10 16.665s1.668 3 10 3l10-3-10-16.665z"/>
<path d="m127 210l-7 10s1.445 2 7 2l7-2-7-10z"/>
</g>
<path d="m135.59 233.5l-1.021-1.735c-1.51 0.653-3.886 1.239-7.567 1.239s-6.057-0.586-7.567-1.239l-1.021 1.735c1.783 0.816 4.492 1.504 8.588 1.504s6.805-0.688 8.588-1.504zm-2.751-10.434l-1.046-1.743c-1.075 0.372-2.614 0.681-4.791 0.681s-3.716-0.309-4.791-0.682l-1.046 1.743c1.324 0.52 3.201 0.939 5.837 0.939s4.513-0.419 5.837-0.938z" fill="#fd655d"/>
<line x1="30" x2="30" y1="230" y2="221.11" stroke="#ef4339" stroke-width="3" vector-effect="non-scaling-stroke"/>
<g fill="#ef4339">
<path d="m30 198.89l-13 22.109s4.109 4 13 4l13-4-13-22.109z"/>
<path d="m30 193.34l-10 16.665s1.668 3 10 3l10-3-10-16.665z"/>
<path d="m30 190l-7 10s1.445 2 7 2l7-2-7-10z"/>
</g>
<path d="m38.588 213.5l-1.021-1.735c-1.51 0.653-3.886 1.239-7.567 1.239s-6.057-0.586-7.567-1.239l-1.021 1.735c1.783 0.816 4.492 1.504 8.588 1.504s6.805-0.688 8.588-1.504zm-2.751-10.434l-1.046-1.743c-1.075 0.372-2.614 0.681-4.791 0.681s-3.716-0.309-4.791-0.682l-1.046 1.743c1.324 0.52 3.201 0.939 5.837 0.939s4.513-0.419 5.837-0.938z" fill="#fd655d"/>
<line x1="67" x2="67" y1="210" y2="201.11" stroke="#ef4339" stroke-width="3" vector-effect="non-scaling-stroke"/>
<g fill="#ef4339">
<path d="m67 178.89l-13 22.109s4.109 4 13 4l13-4-13-22.109z"/>
<path d="m67 173.34l-10 16.665s1.668 3 10 3l10-3-10-16.665z"/>
<path d="m67 170l-7 10s1.445 2 7 2l7-2-7-10z"/>
</g>
<path d="m75.588 193.5l-1.021-1.735c-1.51 0.653-3.886 1.239-7.567 1.239s-6.057-0.586-7.567-1.239l-1.021 1.735c1.783 0.816 4.492 1.504 8.588 1.504s6.805-0.688 8.588-1.504zm-2.751-10.434l-1.046-1.743c-1.075 0.372-2.614 0.681-4.791 0.681s-3.716-0.309-4.791-0.682l-1.046 1.743c1.324 0.52 3.201 0.939 5.837 0.939s4.513-0.419 5.837-0.938z" fill="#fd655d"/>
<line x1="491" x2="491" y1="330" y2="321.11" stroke="#ef4339" stroke-width="3" vector-effect="non-scaling-stroke"/>
<g fill="#ef4339">
<path d="m491 298.89l-13 22.109s4.109 4 13 4l13-4-13-22.109z"/>
<path d="m491 293.34l-10 16.665s1.668 3 10 3l10-3-10-16.665z"/>
<path d="m491 290l-7 10s1.445 2 7 2l7-2-7-10z"/>
</g>
<path d="m499.59 313.5l-1.021-1.735c-1.51 0.653-3.886 1.239-7.567 1.239s-6.057-0.586-7.567-1.239l-1.021 1.735c1.783 0.816 4.492 1.504 8.588 1.504s6.805-0.688 8.588-1.504zm-2.751-10.434l-1.046-1.743c-1.075 0.372-2.614 0.681-4.791 0.681s-3.716-0.309-4.791-0.682l-1.046 1.743c1.324 0.52 3.201 0.939 5.837 0.939s4.513-0.419 5.837-0.938z" fill="#fd655d"/>
<line x1="347" x2="347" y1="270" y2="261.11" stroke="#ef4339" stroke-width="3" vector-effect="non-scaling-stroke"/>
<g fill="#ef4339">
<path d="m347 238.89l-13 22.109s4.109 4 13 4l13-4-13-22.109z"/>
<path d="m347 233.34l-10 16.665s1.668 3 10 3l10-3-10-16.665z"/>
<path d="m347 230l-7 10s1.445 2 7 2l7-2-7-10z"/>
</g>
<path d="m355.59 253.5l-1.021-1.735c-1.51 0.653-3.886 1.239-7.567 1.239s-6.057-0.586-7.567-1.239l-1.021 1.735c1.783 0.816 4.492 1.504 8.588 1.504s6.805-0.688 8.588-1.504zm-2.751-10.434l-1.046-1.743c-1.075 0.372-2.614 0.681-4.791 0.681s-3.716-0.309-4.791-0.682l-1.046 1.743c1.324 0.52 3.201 0.939 5.837 0.939s4.513-0.419 5.837-0.938z" fill="#fd655d"/>
<line x1="277" x2="277" y1="240" y2="231.11" stroke="#ef4339" stroke-width="3" vector-effect="non-scaling-stroke"/>
<g fill="#ef4339">
<path d="m277 208.89l-13 22.109s4.109 4 13 4l13-4-13-22.109z"/>
<path d="m277 203.34l-10 16.665s1.668 3 10 3l10-3-10-16.665z"/>
<path d="m277 200l-7 10s1.445 2 7 2l7-2-7-10z"/>
</g>
<path d="m285.59 223.5l-1.021-1.735c-1.51 0.653-3.886 1.239-7.567 1.239s-6.057-0.586-7.567-1.239l-1.021 1.735c1.783 0.816 4.492 1.504 8.588 1.504s6.805-0.688 8.588-1.504zm-2.751-10.434l-1.046-1.743c-1.075 0.372-2.614 0.681-4.791 0.681s-3.716-0.309-4.791-0.682l-1.046 1.743c1.324 0.52 3.201 0.939 5.837 0.939s4.513-0.419 5.837-0.938z" fill="#fd655d"/>
<line x1="847" x2="847" y1="290" y2="281.11" stroke="#ef4339" stroke-width="3" vector-effect="non-scaling-stroke"/>
<g fill="#ef4339">
<path d="m847 258.89l-13 22.109s4.109 4 13 4l13-4-13-22.109z"/>
<path d="m847 253.34l-10 16.665s1.668 3 10 3l10-3-10-16.665z"/>
<path d="m847 250l-7 10s1.445 2 7 2l7-2-7-10z"/>
</g>
<path d="m855.59 273.5l-1.021-1.735c-1.51 0.653-3.886 1.239-7.567 1.239s-6.057-0.586-7.567-1.239l-1.021 1.735c1.783 0.816 4.492 1.504 8.588 1.504s6.805-0.688 8.588-1.504zm-2.751-10.434l-1.046-1.743c-1.075 0.372-2.614 0.681-4.791 0.681s-3.716-0.309-4.791-0.682l-1.046 1.743c1.324 0.52 3.201 0.939 5.837 0.939s4.513-0.419 5.837-0.938z" fill="#fd655d"/>
<line x1="810" x2="810" y1="310" y2="301.11" stroke="#ef4339" stroke-width="3" vector-effect="non-scaling-stroke"/>
<g fill="#ef4339">
<path d="m810 278.89l-13 22.109s4.109 4 13 4l13-4-13-22.109z"/>
<path d="m810 273.34l-10 16.665s1.668 3 10 3l10-3-10-16.665z"/>
<path d="m810 270l-7 10s1.445 2 7 2l7-2-7-10z"/>
</g>
<path d="m818.59 293.5l-1.021-1.735c-1.51 0.653-3.886 1.239-7.567 1.239s-6.057-0.586-7.567-1.239l-1.021 1.735c1.783 0.816 4.492 1.504 8.588 1.504s6.805-0.688 8.588-1.504zm-2.751-10.434l-1.046-1.743c-1.075 0.372-2.614 0.681-4.791 0.681s-3.716-0.309-4.791-0.682l-1.046 1.743c1.324 0.52 3.201 0.939 5.837 0.939s4.513-0.419 5.837-0.938z" fill="#fd655d"/>
<line x1="883" x2="883" y1="330" y2="321.11" stroke="#ef4339" stroke-width="3" vector-effect="non-scaling-stroke"/>
<g fill="#ef4339">
<path d="m883 298.89l-13 22.109s4.109 4 13 4l13-4-13-22.109z"/>
<path d="m883 293.34l-10 16.665s1.668 3 10 3l10-3-10-16.665z"/>
<path d="m883 290l-7 10s1.445 2 7 2l7-2-7-10z"/>
</g>
<path d="m891.59 313.5l-1.021-1.735c-1.51 0.653-3.886 1.239-7.567 1.239s-6.057-0.586-7.567-1.239l-1.021 1.735c1.783 0.816 4.492 1.504 8.588 1.504s6.805-0.688 8.588-1.504zm-2.751-10.434l-1.046-1.743c-1.075 0.372-2.614 0.681-4.791 0.681s-3.716-0.309-4.791-0.682l-1.046 1.743c1.324 0.52 3.201 0.939 5.837 0.939s4.513-0.419 5.837-0.938z" fill="#fd655d"/>
<line x1="737" x2="737" y1="340" y2="331.11" stroke="#ef4339" stroke-width="3" vector-effect="non-scaling-stroke"/>
<g fill="#ef4339">
<path d="m737 308.89l-13 22.109s4.109 4 13 4l13-4-13-22.109z"/>
<path d="m737 303.34l-10 16.665s1.668 3 10 3l10-3-10-16.665z"/>
<path d="m737 300l-7 10s1.445 2 7 2l7-2-7-10z"/>
</g>
<path d="m745.59 323.5l-1.021-1.735c-1.51 0.653-3.886 1.239-7.567 1.239s-6.057-0.586-7.567-1.239l-1.021 1.735c1.783 0.816 4.492 1.504 8.588 1.504s6.805-0.688 8.588-1.504zm-2.751-10.434l-1.046-1.743c-1.075 0.372-2.614 0.681-4.791 0.681s-3.716-0.309-4.791-0.682l-1.046 1.743c1.324 0.52 3.201 0.939 5.837 0.939s4.513-0.419 5.837-0.938z" fill="#fd655d"/>
<line x1="687" x2="687" y1="350" y2="341.11" stroke="#ef4339" stroke-width="3" vector-effect="non-scaling-stroke"/>
<g fill="#ef4339">
<path d="m687 318.89l-13 22.109s4.109 4 13 4l13-4-13-22.109z"/>
<path d="m687 313.34l-10 16.665s1.668 3 10 3l10-3-10-16.665z"/>
<path d="m687 310l-7 10s1.445 2 7 2l7-2-7-10z"/>
</g>
<path d="m695.59 333.5l-1.021-1.735c-1.51 0.653-3.886 1.239-7.567 1.239s-6.057-0.586-7.567-1.239l-1.021 1.735c1.783 0.816 4.492 1.504 8.588 1.504s6.805-0.688 8.588-1.504zm-2.751-10.434l-1.046-1.743c-1.075 0.372-2.614 0.681-4.791 0.681s-3.716-0.309-4.791-0.682l-1.046 1.743c1.324 0.52 3.201 0.939 5.837 0.939s4.513-0.419 5.837-0.938z" fill="#fd655d"/>
<line x1="940" x2="940" y1="270" y2="261.11" stroke="#ef4339" stroke-width="3" vector-effect="non-scaling-stroke"/>
<g fill="#ef4339">
<path d="m940 238.89l-13 22.109s4.109 4 13 4l13-4-13-22.109z"/>
<path d="m940 233.34l-10 16.665s1.668 3 10 3l10-3-10-16.665z"/>
<path d="m940 230l-7 10s1.445 2 7 2l7-2-7-10z"/>
</g>
<path d="m948.59 253.5l-1.021-1.735c-1.51 0.653-3.886 1.239-7.567 1.239s-6.057-0.586-7.567-1.239l-1.021 1.735c1.783 0.816 4.492 1.504 8.588 1.504s6.805-0.688 8.588-1.504zm-2.751-10.434l-1.046-1.743c-1.075 0.372-2.614 0.681-4.791 0.681s-3.716-0.309-4.791-0.682l-1.046 1.743c1.324 0.52 3.201 0.939 5.837 0.939s4.513-0.419 5.837-0.938z" fill="#fd655d"/>
<line x1="1e3" x2="1e3" y1="250" y2="241.11" stroke="#ef4339" stroke-width="3" vector-effect="non-scaling-stroke"/>
<g fill="#ef4339">
<path d="m1e3 218.89l-13 22.109s4.109 4 13 4l13-4-13-22.109z"/>
<path d="m1e3 213.34l-10 16.665s1.668 3 10 3l10-3-10-16.665z"/>
<path d="m1e3 210l-7 10s1.445 2 7 2l7-2-7-10z"/>
</g>
<path d="m1008.6 233.5l-1.021-1.735c-1.51 0.653-3.886 1.239-7.567 1.239s-6.057-0.586-7.567-1.239l-1.021 1.735c1.783 0.816 4.492 1.504 8.588 1.504s6.805-0.688 8.588-1.504zm-2.751-10.434l-1.046-1.743c-1.075 0.372-2.614 0.681-4.791 0.681s-3.716-0.309-4.791-0.682l-1.046 1.743c1.324 0.52 3.201 0.939 5.837 0.939s4.513-0.419 5.837-0.938z" fill="#fd655d"/>
<line x1="1037" x2="1037" y1="260" y2="251.11" stroke="#ef4339" stroke-width="3" vector-effect="non-scaling-stroke"/>
<g fill="#ef4339">
<path d="m1037 228.89l-13 22.109s4.109 4 13 4l13-4-13-22.109z"/>
<path d="m1037 223.34l-10 16.665s1.668 3 10 3l10-3-10-16.665z"/>
<path d="m1037 220l-7 10s1.445 2 7 2l7-2-7-10z"/>
</g>
<path d="m1045.6 243.5l-1.021-1.735c-1.51 0.653-3.886 1.239-7.567 1.239s-6.057-0.586-7.567-1.239l-1.021 1.735c1.783 0.816 4.492 1.504 8.588 1.504s6.805-0.688 8.588-1.504zm-2.751-10.434l-1.046-1.743c-1.075 0.372-2.614 0.681-4.791 0.681s-3.716-0.309-4.791-0.682l-1.046 1.743c1.324 0.52 3.201 0.939 5.837 0.939s4.513-0.419 5.837-0.938z" fill="#fd655d"/>
<line x1="1063" x2="1063" y1="260" y2="251.11" stroke="#ef4339" stroke-width="3" vector-effect="non-scaling-stroke"/>
<g fill="#ef4339">
<path d="m1063 228.89l-13 22.109s4.109 4 13 4l13-4-13-22.109z"/>
<path d="m1063 223.34l-10 16.665s1.668 3 10 3l10-3-10-16.665z"/>
<path d="m1063 220l-7 10s1.445 2 7 2l7-2-7-10z"/>
</g>
<path d="m1071.6 243.5l-1.021-1.735c-1.51 0.653-3.886 1.239-7.567 1.239s-6.057-0.586-7.567-1.239l-1.021 1.735c1.783 0.816 4.492 1.504 8.588 1.504s6.805-0.688 8.588-1.504zm-2.751-10.434l-1.046-1.743c-1.075 0.372-2.614 0.681-4.791 0.681s-3.716-0.309-4.791-0.682l-1.046 1.743c1.324 0.52 3.201 0.939 5.837 0.939s4.513-0.419 5.837-0.938z" fill="#fd655d"/>
<line x1="1153" x2="1153" y1="210" y2="201.11" stroke="#ef4339" stroke-width="3" vector-effect="non-scaling-stroke"/>
<g fill="#ef4339">
<path d="m1153 178.89l-13 22.109s4.109 4 13 4l13-4-13-22.109z"/>
<path d="m1153 173.34l-10 16.665s1.668 3 10 3l10-3-10-16.665z"/>
<path d="m1153 170l-7 10s1.445 2 7 2l7-2-7-10z"/>
</g>
<path d="m1161.6 193.5l-1.021-1.735c-1.51 0.653-3.886 1.239-7.567 1.239s-6.057-0.586-7.567-1.239l-1.021 1.735c1.783 0.816 4.492 1.504 8.588 1.504s6.805-0.688 8.588-1.504zm-2.751-10.434l-1.046-1.743c-1.075 0.372-2.614 0.681-4.791 0.681s-3.716-0.309-4.791-0.682l-1.046 1.743c1.324 0.52 3.201 0.939 5.837 0.939s4.513-0.419 5.837-0.938z" fill="#fd655d"/>
<line x1="1230" x2="1230" y1="240" y2="231.11" stroke="#ef4339" stroke-width="3" vector-effect="non-scaling-stroke"/>
<g fill="#ef4339">
<path d="m1230 208.89l-13 22.109s4.109 4 13 4l13-4-13-22.109z"/>
<path d="m1230 203.34l-10 16.665s1.668 3 10 3l10-3-10-16.665z"/>
<path d="m1230 200l-7 10s1.445 2 7 2l7-2-7-10z"/>
</g>
<path d="m1238.6 223.5l-1.021-1.735c-1.51 0.653-3.886 1.239-7.567 1.239s-6.057-0.586-7.567-1.239l-1.021 1.735c1.783 0.816 4.492 1.504 8.588 1.504s6.805-0.688 8.588-1.504zm-2.751-10.434l-1.046-1.743c-1.075 0.372-2.614 0.681-4.791 0.681s-3.716-0.309-4.791-0.682l-1.046 1.743c1.324 0.52 3.201 0.939 5.837 0.939s4.513-0.419 5.837-0.938z" fill="#fd655d"/>
<line x1="1340" x2="1340" y1="230" y2="221.11" stroke="#ef4339" stroke-width="3" vector-effect="non-scaling-stroke"/>
<g fill="#ef4339">
<path d="m1340 198.89l-13 22.109s4.109 4 13 4l13-4-13-22.109z"/>
<path d="m1340 193.34l-10 16.665s1.668 3 10 3l10-3-10-16.665z"/>
<path d="m1340 190l-7 10s1.445 2 7 2l7-2-7-10z"/>
</g>
<path d="m1348.6 213.5l-1.021-1.735c-1.51 0.653-3.886 1.239-7.567 1.239s-6.057-0.586-7.567-1.239l-1.021 1.735c1.783 0.816 4.492 1.504 8.588 1.504s6.805-0.688 8.588-1.504zm-2.751-10.434l-1.046-1.743c-1.075 0.372-2.614 0.681-4.791 0.681s-3.716-0.309-4.791-0.682l-1.046 1.743c1.324 0.52 3.201 0.939 5.837 0.939s4.513-0.419 5.837-0.938z" fill="#fd655d"/>
</g>
<path d="m0 250q18.814-33.09 30-30c11.186 3.09 60.171-39.658 70-20s23.837 41.465 40 40 19.219 52.884 40 30 81.402-55.399 100-40 67.018 44.008 90 40 23.819 7.97 50 20 74.286 32.525 100 30 52.508-14.636 70 0 61.259 27.08 90 20 66.578-7.178 100-20 36.812-50.018 60-40 27.638 66.55 40 40q12.362-26.55 50-60l50-30 20 10q1.771-25.399 20-10c18.229 15.399 29.166 34.897 40 20s14.844-15.93 30-30q15.156-14.07 20-20h20 20q24.188 4.897 30 20c5.812 15.103-4.688 24.897 10 20s25.842-6.523 40-10 36.075-6.226 50-10 34.593-9.955 50 0q15.407 9.955 40 20v530h-1370v-520z" fill="#ef4339"/>
<path d="m0 260q18.814-33.09 30-30c11.186 3.09 60.171-39.658 70-20s23.837 41.465 40 40 19.219 52.884 40 30 81.402-55.399 100-40 67.018 44.008 90 40 23.819 7.97 50 20 74.286 32.525 100 30 52.508-14.636 70 0 61.259 27.08 90 20 66.578-7.178 100-20 36.812-50.018 60-40 27.638 66.55 40 40q12.362-26.55 50-60l50-30 20 10q1.771-25.399 20-10c18.229 15.399 29.166 34.897 40 20s14.844-15.93 30-30q15.156-14.07 20-20h20 20q24.188 4.897 30 20c5.812 15.103-4.688 24.897 10 20s25.842-6.523 40-10 36.075-6.226 50-10 34.593-9.955 50 0q15.407 9.955 40 20v520h-1370v-510z" fill="#ef4339"/>
<clipPath id="a">
<path d="m0 260q18.814-33.09 30-30c11.186 3.09 60.171-39.658 70-20s23.837 41.465 40 40 19.219 52.884 40 30 81.402-55.399 100-40 67.018 44.008 90 40 23.819 7.97 50 20 74.286 32.525 100 30 52.508-14.636 70 0 61.259 27.08 90 20 66.578-7.178 100-20 36.812-50.018 60-40 27.638 66.55 40 40q12.362-26.55 50-60l50-30 20 10q1.771-25.399 20-10c18.229 15.399 29.166 34.897 40 20s14.844-15.93 30-30q15.156-14.07 20-20h20 20q24.188 4.897 30 20c5.812 15.103-4.688 24.897 10 20s25.842-6.523 40-10 36.075-6.226 50-10 34.593-9.955 50 0q15.407 9.955 40 20v520h-1370v-510z" fill="#ef4339"/>
</clipPath>
<g clip-path="url(#a)" fill="#fd655d">
<path d="m0 310q67-13 30-90t-30 90z"/>
<path d="m40 220q8 44 30 50c22 6-8-43 20-70q28-27-50 20z"/>
<path d="m130 240q5 31 20 20t-20-20z"/>
<path d="m170 290q111 3 90-20c-21-23-4-21 20-40q24-19-100 10l-10 50z"/>
<path d="m350 270q-52 26-10 30c42 4 21-12 50-20q29-8-20-30l-20 20z"/>
<path d="m500 330q-61 31 30 20t40-30l-70 10z"/>
<path d="m630 340q-21 22 10 20c31-2 62-3 80 10s101 13 100-10 32-59 10-70q-22-11-110-10l-90 60z"/>
<path d="m870 300q53-1 50 30c-3 31 18-43 50-50s13-34 0-50 29 5 50 30-10-28-30-50 83 20 90 60 91-35 80-80q-11-45-280 0l-10 110z"/>
<path d="m1200 230q43 21 20 40c-23 19 128-32 120-50q-8-18-140 10z"/>
</g>
</g>
</svg>
