<?xml version="1.0" encoding="UTF-8" standalone="no"?>
<!-- Generator: Gravit.io -->
<svg style="isolation:isolate" xmlns="http://www.w3.org/2000/svg" height="770" width="1370.1" xmlns:xlink="http://www.w3.org/1999/xlink" viewBox="0 0 1370.123 770">
 <g id="CAMADA 1" style="isolation:isolate">
  <path d="m0 700q342.27 29.54 450 20c107.73-9.54 367.28-35.01 440-30s353.8 38.95 390 40q36.2 1.05 90 0v40h-1370v-70z" fill="#2f122e"/>
  <g id="Arvores" style="isolation:isolate">
   <g id="null">
    <line stroke-width="25" y2="696.96" vector-effect="non-scaling-stroke" x2="81.25" stroke="#2f122e" y1="752.53" x1="81.25"/>
    <g id="null" fill="#2f122e">
     <path d="m81.25 558.1l-81.25 138.18s25.681 25 81.25 25l81.25-25-81.25-138.18z"/>
     <path d="m81.25 523.38l-62.5 104.15s10.425 18.75 62.5 18.75l62.5-18.75-62.5-104.15z"/>
     <path d="m81.25 502.53l-43.75 62.5s9.031 12.5 43.75 12.5l43.75-12.5-43.75-62.5z"/>
    </g>
    <path d="m134.92 649.38l-6.38-10.84c-9.43 4.08-24.28 7.74-47.29 7.74-23.006 0-37.856-3.66-47.294-7.74l-6.381 10.84c11.144 5.1 28.075 9.4 53.675 9.4s42.53-4.3 53.67-9.4zm-17.19-65.21l-6.54-10.89c-6.71 2.32-16.334 4.25-29.94 4.25s-23.225-1.93-29.944-4.26l-6.537 10.89c8.275 3.26 20.006 5.87 36.481 5.87s28.21-2.61 36.48-5.86z" fill="#351634"/>
   </g>
   <g id="null">
    <g id="null" fill="#2f122e">
     <path d="m1370.1 577.32l-11.3-19.22-81.3 138.18s25.7 25 81.3 25t11.2-1.28l0.1-142.68z"/>
     <path d="m1369.9 541.98l-11.1-18.6-62.6 104.15s10.5 18.75 62.6 18.75t11.2-6.28l-0.1-98.02z"/>
     <path d="m1370 520l-11.2-17.47-43.8 62.5s9 12.5 43.8 12.5t11.2-7.53v-50z"/>
    </g>
    <path d="m1370 658.49l0.1-12.53q-7.3 0.32-11.3 0.32c-23.1 0-37.9-3.66-47.3-7.74l-6.4 10.84c11.1 5.1 28.1 9.4 53.7 9.4q3.9 0 11.2-0.29zm0.1-68.91v-12.21q-6.5 0.16-11.3 0.16c-13.7 0-23.3-1.93-30-4.26l-6.5 10.89c8.2 3.26 20 5.87 36.5 5.87q4 0 11.3-0.45z" fill="#351634"/>
   </g>
   <g id="null">
    <line stroke-width="25" y2="669.43" vector-effect="non-scaling-stroke" x2="218.75" stroke="#2f122e" y1="725" x1="218.75"/>
    <g id="null" fill="#2f122e">
     <path d="m218.75 530.57l-81.25 138.18s25.68 25 81.25 25l81.25-25-81.25-138.18z"/>
     <path d="m218.75 495.84l-62.5 104.16s10.43 18.75 62.5 18.75l62.5-18.75-62.5-104.16z"/>
     <path d="m218.75 475l-43.75 62.5s9.03 12.5 43.75 12.5l43.75-12.5-43.75-62.5z"/>
    </g>
    <path d="m272.42 621.85l-6.38-10.84c-9.43 4.08-24.28 7.74-47.29 7.74s-37.86-3.66-47.29-7.74l-6.38 10.84c11.14 5.1 28.07 9.4 53.67 9.4s42.53-4.3 53.67-9.4zm-17.19-65.21l-6.54-10.9c-6.71 2.33-16.33 4.26-29.94 4.26s-23.23-1.93-29.94-4.26l-6.54 10.89c8.27 3.25 20.01 5.87 36.48 5.87s28.21-2.62 36.48-5.86z" fill="#351634"/>
   </g>
   <g id="null">
    <line stroke-width="25" y2="669.43" vector-effect="non-scaling-stroke" x2="861.25" stroke="#2f122e" y1="725" x1="861.25"/>
    <g id="null" fill="#2f122e">
     <path d="m861.25 530.57l-81.25 138.18s25.68 25 81.25 25l81.25-25-81.25-138.18z"/>
     <path d="m861.25 495.84l-62.5 104.16s10.43 18.75 62.5 18.75l62.5-18.75-62.5-104.16z"/>
     <path d="m861.25 475l-43.75 62.5s9.03 12.5 43.75 12.5l43.75-12.5-43.75-62.5z"/>
    </g>
    <path d="m914.92 621.85l-6.38-10.84c-9.43 4.08-24.28 7.74-47.29 7.74s-37.86-3.66-47.29-7.74l-6.38 10.84c11.14 5.1 28.07 9.4 53.67 9.4s42.53-4.3 53.67-9.4zm-17.19-65.21l-6.54-10.9c-6.71 2.33-16.33 4.26-29.94 4.26s-23.23-1.93-29.94-4.26l-6.54 10.89c8.27 3.25 20.01 5.87 36.48 5.87s28.21-2.62 36.48-5.86z" fill="#351634"/>
   </g>
   <g id="null">
    <line stroke-width="25" y2="696.96" vector-effect="non-scaling-stroke" x2="731.25" stroke="#2f122e" y1="752.53" x1="731.25"/>
    <g id="null" fill="#2f122e">
     <path d="m731.25 558.1l-81.25 138.18s25.68 25 81.25 25l81.25-25-81.25-138.18z"/>
     <path d="m731.25 523.38l-62.5 104.15s10.43 18.75 62.5 18.75l62.5-18.75-62.5-104.15z"/>
     <path d="m731.25 502.53l-43.75 62.5s9.03 12.5 43.75 12.5l43.75-12.5-43.75-62.5z"/>
    </g>
    <path d="m784.92 649.38l-6.38-10.84c-9.43 4.08-24.28 7.74-47.29 7.74s-37.86-3.66-47.29-7.74l-6.38 10.84c11.14 5.1 28.07 9.4 53.67 9.4s42.53-4.3 53.67-9.4zm-17.19-65.21l-6.54-10.89c-6.71 2.32-16.33 4.25-29.94 4.25s-23.23-1.93-29.94-4.26l-6.54 10.89c8.27 3.26 20.01 5.87 36.48 5.87s28.21-2.61 36.48-5.86z" fill="#351634"/>
   </g>
   <g id="null">
    <g id="null" fill="#2f122e">
     <path d="m598.75 590.57l-81.25 138.18s25.68 25 81.25 25l81.25-25-81.25-138.18z"/>
     <path d="m598.75 555.84l-62.5 104.16s10.43 18.75 62.5 18.75l62.5-18.75-62.5-104.16z"/>
     <path d="m598.75 535l-43.75 62.5s9.03 12.5 43.75 12.5l43.75-12.5-43.75-62.5z"/>
    </g>
    <path d="m652.42 681.85l-6.38-10.84c-9.43 4.08-24.28 7.74-47.29 7.74s-37.86-3.66-47.29-7.74l-6.38 10.84c11.14 5.1 28.07 9.4 53.67 9.4s42.53-4.3 53.67-9.4zm-17.19-65.21l-6.54-10.9c-6.71 2.33-16.33 4.26-29.94 4.26s-23.23-1.93-29.94-4.26l-6.54 10.89c8.27 3.25 20.01 5.87 36.48 5.87s28.21-2.62 36.48-5.86z" fill="#351634"/>
   </g>
   <g id="null">
    <line stroke-width="25" y2="709.43" vector-effect="non-scaling-stroke" x2="318.75" stroke="#2f122e" y1="765" x1="318.75"/>
    <g id="null" fill="#2f122e">
     <path d="m318.75 570.57l-81.25 138.18s25.68 25 81.25 25l81.25-25-81.25-138.18z"/>
     <path d="m318.75 535.84l-62.5 104.16s10.43 18.75 62.5 18.75l62.5-18.75-62.5-104.16z"/>
     <path d="m318.75 515l-43.75 62.5s9.03 12.5 43.75 12.5l43.75-12.5-43.75-62.5z"/>
    </g>
    <path d="m372.42 661.85l-6.38-10.84c-9.43 4.08-24.28 7.74-47.29 7.74s-37.86-3.66-47.29-7.74l-6.38 10.84c11.14 5.1 28.07 9.4 53.67 9.4s42.53-4.3 53.67-9.4zm-17.19-65.21l-6.54-10.9c-6.71 2.33-16.33 4.26-29.94 4.26s-23.23-1.93-29.94-4.26l-6.54 10.89c8.27 3.25 20.01 5.87 36.48 5.87s28.21-2.62 36.48-5.86z" fill="#351634"/>
   </g>
   <g id="null">
    <line stroke-width="25" y2="696.96" vector-effect="non-scaling-stroke" x2="1238.8" stroke="#2f122e" y1="752.53" x1="1238.8"/>
    <g id="null" fill="#2f122e">
     <path d="m1238.8 558.1l-81.3 138.18s25.7 25 81.3 25l81.2-25-81.2-138.18z"/>
     <path d="m1238.8 523.38l-62.6 104.15s10.5 18.75 62.6 18.75l62.4-18.75-62.4-104.15z"/>
     <path d="m1238.8 502.53l-43.8 62.5s9 12.5 43.8 12.5l43.7-12.5-43.7-62.5z"/>
    </g>
    <path d="m1292.4 649.38l-6.4-10.84c-9.4 4.08-24.2 7.74-47.2 7.74-23.1 0-37.9-3.66-47.3-7.74l-6.4 10.84c11.1 5.1 28.1 9.4 53.7 9.4s42.5-4.3 53.6-9.4zm-17.2-65.21l-6.5-10.89c-6.7 2.32-16.3 4.25-29.9 4.25-13.7 0-23.3-1.93-30-4.26l-6.5 10.89c8.2 3.26 20 5.87 36.5 5.87 16.4 0 28.2-2.61 36.4-5.86z" fill="#351634"/>
   </g>
  </g>
 </g>
</svg>
