<?xml version="1.0" encoding="UTF-8" standalone="no"?>
<!-- Generator: Gravit.io -->
<svg style="isolation:isolate" xmlns="http://www.w3.org/2000/svg" height="770" width="1370" xmlns:xlink="http://www.w3.org/1999/xlink" viewBox="0 0 1370 770">
 <g id="CAMADA 3" style="isolation:isolate">
  <g id="Arvores" style="isolation:isolate">
   <g id="null">
    <line stroke-width="10.855" y2="431.19" vector-effect="non-scaling-stroke" x2="1145.3" stroke="#7f0033" y1="455.32" x1="1145.3"/>
    <g id="null" fill="#7f0033">
     <path d="m1145.3 370.9l-35.3 60s11.2 10.85 35.3 10.85l35.3-10.85-35.3-60z"/>
     <path d="m1145.3 355.82l-27.2 45.23s4.6 8.14 27.2 8.14l27.1-8.14-27.1-45.23z"/>
     <path d="m1145.3 346.77l-19 27.14s3.9 5.43 19 5.43l19-5.43-19-27.14z"/>
    </g>
    <path d="m1168.6 410.53l-2.8-4.71c-4.1 1.78-10.5 3.37-20.5 3.37s-16.5-1.59-20.6-3.37l-2.7 4.71c4.8 2.22 12.2 4.08 23.3 4.08s18.4-1.86 23.3-4.08zm-7.5-28.31l-2.8-4.73c-2.9 1.01-7.1 1.85-13 1.85s-10.1-0.84-13-1.85l-2.9 4.73c3.6 1.41 8.7 2.54 15.9 2.54 7.1 0 12.2-1.13 15.8-2.54z" fill="#950e44"/>
   </g>
   <g id="null">
    <line stroke-width="10.855" y2="460.15" vector-effect="non-scaling-stroke" x2="1279.4" stroke="#7f0033" y1="484.27" x1="1279.4"/>
    <g id="null" fill="#7f0033">
     <path d="m1279.4 399.85l-35.2 60s11.1 10.85 35.2 10.85l35.3-10.85-35.3-60z"/>
     <path d="m1279.4 384.78l-27.1 45.22s4.5 8.14 27.1 8.14c0 0 27.2-8.14 27.2-8.14l-27.2-45.22z"/>
     <path d="m1279.4 375.73l-19 27.13s4 5.43 19 5.43l19-5.43-19-27.13z"/>
    </g>
    <path d="m1302.8 439.49l-2.8-4.71c-4.1 1.77-10.6 3.36-20.6 3.36-9.9 0-16.4-1.59-20.5-3.36l-2.8 4.71c4.9 2.21 12.2 4.08 23.3 4.08 11.2 0 18.5-1.87 23.4-4.08zm-7.5-28.32l-2.9-4.73c-2.9 1.01-7 1.85-13 1.85-5.9 0-10-0.84-13-1.85l-2.8 4.73c3.6 1.41 8.7 2.55 15.8 2.55 7.2 0 12.3-1.14 15.9-2.55z" fill="#950e44"/>
   </g>
   <g id="null">
    <line stroke-width="10.855" y2="405.87" vector-effect="non-scaling-stroke" x2="1350" stroke="#7f0033" y1="430" x1="1350"/>
    <g id="null" fill="#7f0033">
     <path d="m1370 380l-20-34.42-35.3 60s11.2 10.85 35.3 10.85t20-6.43v-30z"/>
     <path d="m1370 364l-20-33.5-27.1 45.23s4.5 8.14 27.1 8.14t20-3.87v-16z"/>
     <path d="m1350 321.45l-19 27.14s3.9 5.43 19 5.43l19-5.43-19-27.14z"/>
    </g>
    <path d="m1370 386q0-4.83 0-6c-4.1 1.77-10 3.87-20 3.87s-16.4-1.59-20.5-3.36l-2.8 4.7c4.8 2.22 12.2 4.09 23.3 4.09 8.7 0 15.3-1.74 20-3.3zm-4.2-29.1l-2.8-4.73c-2.9 1.01-7.1 1.85-13 1.85s-10.1-0.84-13-1.85l-2.8 4.73c3.6 1.41 8.6 2.54 15.8 2.54s12.2-1.13 15.8-2.54z" fill="#950e44"/>
   </g>
   <g id="null">
    <line stroke-width="10.855" y2="499.94" vector-effect="non-scaling-stroke" x2="855.28" stroke="#7f0033" y1="524.07" x1="855.28"/>
    <g id="null" fill="#7f0033">
     <path d="m855.28 439.65l-35.28 60s11.15 10.85 35.28 10.85l35.28-10.85-35.28-60z"/>
     <path d="m855.28 424.57l-27.14 45.23s4.53 8.14 27.14 8.14c0 0 27.13-8.14 27.13-8.14l-27.13-45.23z"/>
     <path d="m855.28 415.52l-19 27.14s3.92 5.43 19 5.43l18.99-5.43-18.99-27.14z"/>
    </g>
    <path d="m878.58 479.28l-2.77-4.7c-4.1 1.77-10.54 3.36-20.53 3.36s-16.44-1.59-20.54-3.36l-2.77 4.7c4.84 2.22 12.19 4.08 23.31 4.08 11.11 0 18.46-1.86 23.3-4.08zm-7.46-28.31l-2.84-4.73c-2.92 1.01-7.1 1.85-13 1.85-5.91 0-10.09-0.84-13-1.85l-2.84 4.73c3.59 1.41 8.68 2.54 15.84 2.54 7.15 0 12.24-1.13 15.84-2.54z" fill="#950e44"/>
   </g>
   <g id="null">
    <line stroke-width="10.855" y2="474.42" vector-effect="non-scaling-stroke" x2="959.44" stroke="#7f0033" y1="498.55" x1="959.44"/>
    <g id="null" fill="#7f0033">
     <path d="m959.44 414.13l-35.27 59.99s11.15 10.86 35.27 10.86l35.28-10.86-35.28-59.99z"/>
     <path d="m959.44 399.05l-27.13 45.22s4.53 8.14 27.13 8.14c0 0 27.14-8.14 27.14-8.14l-27.14-45.22z"/>
     <path d="m959.44 390l-18.99 27.14s3.92 5.42 18.99 5.42c0 0 19-5.42 19-5.42l-19-27.14z"/>
    </g>
    <path d="m982.75 453.76l-2.77-4.71c-4.1 1.77-10.55 3.36-20.54 3.36-9.98 0-16.43-1.59-20.53-3.36l-2.77 4.71c4.84 2.21 12.19 4.08 23.3 4.08 11.12 0 18.47-1.87 23.31-4.08zm-7.47-28.31l-2.83-4.73c-2.92 1-7.1 1.84-13.01 1.84-5.9 0-10.08-0.84-13-1.85l-2.83 4.73c3.59 1.41 8.68 2.55 15.83 2.55 7.16 0 12.25-1.14 15.84-2.54z" fill="#950e44"/>
   </g>
   <g id="null">
    <line stroke-width="10.855" y2="460.15" vector-effect="non-scaling-stroke" x2="1030" stroke="#7f0033" y1="484.27" x1="1030"/>
    <g id="null" fill="#7f0033">
     <path d="m1030 399.85l-35.28 60s11.18 10.85 35.28 10.85l35.3-10.85-35.3-60z"/>
     <path d="m1030 384.78l-27.1 45.22s4.5 8.14 27.1 8.14l27.1-8.14-27.1-45.22z"/>
     <path d="m1030 375.73l-19 27.13s3.9 5.43 19 5.43l19-5.43-19-27.13z"/>
    </g>
    <path d="m1053.3 439.49l-2.8-4.71c-4.1 1.77-10.5 3.36-20.5 3.36s-16.4-1.59-20.5-3.36l-2.8 4.71c4.8 2.21 12.2 4.08 23.3 4.08s18.5-1.87 23.3-4.08zm-7.5-28.32l-2.8-4.73c-2.9 1.01-7.1 1.85-13 1.85s-10.1-0.84-13-1.85l-2.8 4.73c3.6 1.41 8.6 2.55 15.8 2.55s12.2-1.14 15.8-2.55z" fill="#950e44"/>
   </g>
   <g id="null">
    <line stroke-width="10.855" y2="474.42" vector-effect="non-scaling-stroke" x2="404.72" stroke="#7f0033" y1="498.55" x1="404.72"/>
    <g id="null" fill="#7f0033">
     <path d="m404.72 414.13l-35.28 59.99s11.16 10.86 35.28 10.86l35.28-10.86-35.28-59.99z"/>
     <path d="m404.72 399.05l-27.13 45.22s4.52 8.14 27.13 8.14c0 0 27.14-8.14 27.14-8.14l-27.14-45.22z"/>
     <path d="m404.72 390l-18.99 27.14s3.92 5.42 18.99 5.42c0 0 19-5.42 19-5.42l-19-27.14z"/>
    </g>
    <path d="m428.03 453.76l-2.77-4.71c-4.1 1.77-10.55 3.36-20.54 3.36s-16.43-1.59-20.53-3.36l-2.77 4.71c4.84 2.21 12.19 4.08 23.3 4.08 11.12 0 18.47-1.87 23.31-4.08zm-7.47-28.31l-2.84-4.73c-2.91 1-7.09 1.84-13 1.84-5.9 0-10.08-0.84-13-1.85l-2.84 4.73c3.6 1.41 8.69 2.55 15.84 2.55 7.16 0 12.25-1.14 15.84-2.54z" fill="#950e44"/>
   </g>
   <g id="null">
    <line stroke-width="10.855" y2="460.15" vector-effect="non-scaling-stroke" x2="543.89" stroke="#7f0033" y1="484.27" x1="543.89"/>
    <g id="null" fill="#7f0033">
     <path d="m543.89 399.85l-35.28 60s11.15 10.85 35.28 10.85l35.28-10.85-35.28-60z"/>
     <path d="m543.89 384.78l-27.14 45.22s4.53 8.14 27.14 8.14c0 0 27.14-8.14 27.14-8.14l-27.14-45.22z"/>
     <path d="m543.89 375.73l-18.99 27.13s3.92 5.43 18.99 5.43l19-5.43-19-27.13z"/>
    </g>
    <path d="m567.2 439.49l-2.78-4.71c-4.09 1.77-10.54 3.36-20.53 3.36s-16.44-1.59-20.53-3.36l-2.78 4.71c4.84 2.21 12.2 4.08 23.31 4.08s18.47-1.87 23.31-4.08zm-7.47-28.32l-2.84-4.73c-2.92 1.01-7.09 1.85-13 1.85s-10.08-0.84-13-1.85l-2.84 4.73c3.59 1.41 8.69 2.55 15.84 2.55s12.25-1.14 15.84-2.55z" fill="#950e44"/>
   </g>
   <g id="null">
    <line stroke-width="10.855" y2="474.42" vector-effect="non-scaling-stroke" x2="614.44" stroke="#7f0033" y1="498.55" x1="614.44"/>
    <g id="null" fill="#7f0033">
     <path d="m614.44 414.13l-35.27 59.99s11.15 10.86 35.27 10.86l35.28-10.86-35.28-59.99z"/>
     <path d="m614.44 399.05l-27.13 45.22s4.53 8.14 27.13 8.14c0 0 27.14-8.14 27.14-8.14l-27.14-45.22z"/>
     <path d="m614.44 390l-18.99 27.14s3.92 5.42 18.99 5.42c0 0 19-5.42 19-5.42l-19-27.14z"/>
    </g>
    <path d="m637.75 453.76l-2.77-4.71c-4.1 1.77-10.55 3.36-20.54 3.36-9.98 0-16.43-1.59-20.53-3.36l-2.77 4.71c4.84 2.21 12.19 4.08 23.3 4.08 11.12 0 18.47-1.87 23.31-4.08zm-7.47-28.31l-2.83-4.73c-2.92 1-7.1 1.84-13.01 1.84-5.9 0-10.08-0.84-13-1.85l-2.83 4.73c3.59 1.41 8.68 2.55 15.83 2.55 7.16 0 12.25-1.14 15.84-2.54z" fill="#950e44"/>
   </g>
   <g id="null">
    <line stroke-width="10.855" y2="499.94" vector-effect="non-scaling-stroke" x2="685" stroke="#7f0033" y1="524.07" x1="685"/>
    <g id="null" fill="#7f0033">
     <path d="m685 439.65l-35.28 60s11.15 10.85 35.28 10.85l35.28-10.85-35.28-60z"/>
     <path d="m685 424.57l-27.14 45.23s4.53 8.14 27.14 8.14c0 0 27.14-8.14 27.14-8.14l-27.14-45.23z"/>
     <path d="m685 415.52l-19 27.14s3.93 5.43 19 5.43l19-5.43-19-27.14z"/>
    </g>
    <path d="m708.3 479.28l-2.77-4.7c-4.09 1.77-10.54 3.36-20.53 3.36s-16.44-1.59-20.53-3.36l-2.77 4.7c4.83 2.22 12.18 4.08 23.3 4.08s18.47-1.86 23.3-4.08zm-7.46-28.31l-2.84-4.73c-2.92 1.01-7.09 1.85-13 1.85s-10.08-0.84-13-1.85l-2.84 4.73c3.59 1.41 8.69 2.54 15.84 2.54s12.25-1.13 15.84-2.54z" fill="#950e44"/>
   </g>
   <g id="null">
    <line stroke-width="10.855" y2="460.15" vector-effect="non-scaling-stroke" x2="219.44" stroke="#7f0033" y1="484.27" x1="219.44"/>
    <g id="null" fill="#7f0033">
     <path d="m219.44 399.85l-35.27 60s11.15 10.85 35.27 10.85l35.28-10.85-35.28-60z"/>
     <path d="m219.44 384.78l-27.13 45.22s4.53 8.14 27.13 8.14c0 0 27.14-8.14 27.14-8.14l-27.14-45.22z"/>
     <path d="m219.44 375.73l-18.99 27.13s3.92 5.43 18.99 5.43l19-5.43-19-27.13z"/>
    </g>
    <path d="m242.75 439.49l-2.77-4.71c-4.1 1.77-10.55 3.36-20.54 3.36-9.98 0-16.43-1.59-20.53-3.36l-2.77 4.71c4.84 2.21 12.19 4.08 23.3 4.08 11.12 0 18.47-1.87 23.31-4.08zm-7.47-28.32l-2.83-4.73c-2.92 1.01-7.1 1.85-13.01 1.85-5.9 0-10.08-0.84-13-1.85l-2.83 4.73c3.59 1.41 8.68 2.55 15.83 2.55 7.16 0 12.25-1.14 15.84-2.55z" fill="#950e44"/>
   </g>
   <g id="null">
    <line stroke-width="10.855" y2="445.67" vector-effect="non-scaling-stroke" x2="290" stroke="#7f0033" y1="469.8" x1="290"/>
    <g id="null" fill="#7f0033">
     <path d="m290 385.38l-35.28 59.99s11.15 10.86 35.28 10.86l35.28-10.86-35.28-59.99z"/>
     <path d="m290 370.3l-27.14 45.22s4.53 8.14 27.14 8.14c0 0 27.14-8.14 27.14-8.14l-27.14-45.22z"/>
     <path d="m290 361.25l-19 27.14s3.93 5.42 19 5.42c0 0 19-5.42 19-5.42l-19-27.14z"/>
    </g>
    <path d="m313.3 425.01l-2.77-4.71c-4.09 1.77-10.54 3.36-20.53 3.36s-16.44-1.59-20.53-3.36l-2.77 4.71c4.83 2.21 12.18 4.08 23.3 4.08s18.47-1.87 23.3-4.08zm-7.46-28.31l-2.84-4.73c-2.92 1.01-7.09 1.84-13 1.84s-10.08-0.83-13-1.85l-2.84 4.73c3.59 1.41 8.69 2.55 15.84 2.55s12.25-1.14 15.84-2.54z" fill="#950e44"/>
   </g>
   <g id="null">
    <line stroke-width="10.855" y2="431.19" vector-effect="non-scaling-stroke" x2="80" stroke="#7f0033" y1="455.32" x1="80"/>
    <g id="null" fill="#7f0033">
     <path d="m80 370.9l-35.277 60s11.15 10.85 35.277 10.85l35.28-10.85-35.28-60z"/>
     <path d="m80 355.82l-27.136 45.23s4.526 8.14 27.136 8.14c0 0 27.14-8.14 27.14-8.14l-27.14-45.23z"/>
     <path d="m80 346.77l-18.996 27.14s3.922 5.43 18.996 5.43l18.996-5.43-18.996-27.14z"/>
    </g>
    <path d="m103.3 410.53l-2.77-4.71c-4.093 1.78-10.541 3.37-20.53 3.37s-16.437-1.59-20.534-3.37l-2.771 4.71c4.839 2.22 12.19 4.08 23.305 4.08s18.466-1.86 23.3-4.08zm-7.46-28.31l-2.839-4.73c-2.917 1.01-7.093 1.85-13.001 1.85s-10.084-0.84-13.001-1.85l-2.839 4.73c3.593 1.41 8.687 2.54 15.84 2.54s12.247-1.13 15.84-2.54z" fill="#950e44"/>
   </g>
  </g>
  <path d="m0 440q64.43-39.32 100-20c35.57 19.32 64.9 14.94 100 30s132.76-29.32 150-20 40.98 24.94 60 30 145.94-6.77 170 0 99.25 22.34 120 30 73.38 12.34 120 10 134.38-18.19 160-30c25.6-11.81 107.4-96.18 130-60s12.6 32.4 100 30q87.4-2.4 160-30v360h-1370v-330z" fill="#7f0033"/>
  <path d="m0 454.48q64.43-39.32 100-20c35.57 19.31 64.9 14.94 100 30s132.76-29.32 150-20c17.24 9.31 40.98 24.94 60 30s145.94-6.78 170 0c24.06 6.77 99.25 22.33 120 30 20.75 7.66 73.38 12.33 120 10 46.62-2.34 134.38-18.2 160-30 25.6-11.81 107.4-96.18 130-60s12.6 32.4 100 30q87.4-2.4 160-30v345.52h-1370v-315.52z" fill="#7f0033"/>
  <clipPath id="_clipPath_uKC2kTOdPqMg8puJVGDQJnUpQpsVM2qO">
   <path d="m0 454.48q64.43-39.32 100-20c35.57 19.31 64.9 14.94 100 30s132.76-29.32 150-20c17.24 9.31 40.98 24.94 60 30s145.94-6.78 170 0c24.06 6.77 99.25 22.33 120 30 20.75 7.66 73.38 12.33 120 10 46.62-2.34 134.38-18.2 160-30 25.6-11.81 107.4-96.18 130-60s12.6 32.4 100 30q87.4-2.4 160-30v345.52h-1370v-315.52z" fill="#7f0033"/>
  </clipPath>
  <g clip-path="url(#_clipPath_uKC2kTOdPqMg8puJVGDQJnUpQpsVM2qO)">
   <path d="m0 494.48q150-24 60-80t160-30l60 50q-110 82-50 60c60-22 116 26 110-10s-36-32 20-70 52 66 90 80 146-12 180-40 164 48 160 90 242 66 200 20 98-100 120-160 32 72 80 80 144 82 150 30q6-52 30-70v-120l-1370-20v190z" fill="#950e44"/>
  </g>
 </g>
</svg>
