<?xml version="1.0" encoding="UTF-8"?>
<svg style="isolation:isolate" viewBox="0 0 1370 770" xmlns="http://www.w3.org/2000/svg">
<g style="isolation:isolate">
<g style="isolation:isolate">
<line x1="241.81" x2="241.81" y1="190" y2="184.4" stroke="#fe6b3f" stroke-width="2.519" vector-effect="non-scaling-stroke"/>
<g fill="#fe6b3f">
<path d="m241.81 170.41l-8.186 13.922s2.587 2.519 8.186 2.519l8.187-2.519-8.187-13.922z"/>
<path d="m241.81 166.91l-6.297 10.494s1.05 1.89 6.297 1.89l6.298-1.89-6.298-10.494z"/>
<path d="m241.81 164.81l-4.408 6.297s0.91 1.259 4.408 1.259l4.409-1.259-4.409-6.297z"/>
</g>
<path d="m247.22 179.61l-0.643-1.093c-0.951 0.411-2.448 0.781-4.766 0.781s-3.814-0.37-4.765-0.781l-0.643 1.093c1.123 0.514 2.829 0.947 5.408 0.947 2.58 0 4.286-0.433 5.409-0.947zm-1.733-6.571l-0.658-1.097c-0.677 0.234-1.647 0.428-3.018 0.428-1.37 0-2.34-0.194-3.017-0.429l-0.658 1.098c0.833 0.327 2.015 0.591 3.675 0.591s2.842-0.264 3.676-0.591z" fill="#f99d60"/>
<line x1="168.19" x2="168.19" y1="202.6" y2="197" stroke="#fe6b3f" stroke-width="2.519" vector-effect="non-scaling-stroke"/>
<g fill="#fe6b3f">
<path d="m168.19 183l-8.187 13.923s2.588 2.519 8.187 2.519l8.186-2.519-8.186-13.923z"/>
<path d="m168.19 179.5l-6.298 10.495s1.051 1.889 6.298 1.889l6.297-1.889-6.297-10.495z"/>
<path d="m168.19 177.4l-4.409 6.298s0.91 1.259 4.409 1.259l4.408-1.259-4.408-6.298z"/>
</g>
<path d="m173.6 192.2l-0.643-1.093c-0.951 0.411-2.447 0.78-4.765 0.78s-3.815-0.369-4.766-0.78l-0.643 1.093c1.123 0.513 2.829 0.947 5.409 0.947 2.579 0 4.285-0.434 5.408-0.947zm-1.733-6.571l-0.658-1.098c-0.677 0.235-1.647 0.429-3.017 0.429-1.371 0-2.341-0.194-3.018-0.429l-0.658 1.097c0.834 0.328 2.016 0.592 3.676 0.592s2.842-0.264 3.675-0.591z" fill="#f99d60"/>
<line x1="368.19" x2="368.19" y1="155.19" y2="149.59" stroke="#fe6b3f" stroke-width="2.519" vector-effect="non-scaling-stroke"/>
<g fill="#fe6b3f">
<path d="m368.19 135.6l-8.187 13.923s2.588 2.519 8.187 2.519l8.186-2.519-8.186-13.923z"/>
<path d="m368.19 132.1l-6.298 10.495s1.051 1.889 6.298 1.889l6.297-1.889-6.297-10.495z"/>
<path d="m368.19 130l-4.409 6.297s0.91 1.26 4.409 1.26l4.408-1.26-4.408-6.297z"/>
</g>
<path d="m373.6 144.8l-0.643-1.092c-0.951 0.411-2.447 0.78-4.765 0.78s-3.815-0.369-4.766-0.78l-0.643 1.092c1.123 0.514 2.829 0.947 5.409 0.947 2.579 0 4.285-0.433 5.408-0.947zm-1.733-6.57l-0.658-1.098c-0.677 0.234-1.647 0.429-3.017 0.429-1.371 0-2.341-0.195-3.018-0.43l-0.658 1.098c0.834 0.327 2.016 0.591 3.676 0.591s2.842-0.264 3.675-0.59z" fill="#f99d60"/>
<line x1="410" x2="410" y1="177.4" y2="171.81" stroke="#fe6b3f" stroke-width="2.519" vector-effect="non-scaling-stroke"/>
<g fill="#fe6b3f">
<path d="m410 157.82l-8.187 13.923s2.588 2.519 8.187 2.519l8.187-2.519-8.187-13.923z"/>
<path d="m410 154.32l-6.297 10.495s1.05 1.889 6.297 1.889l6.297-1.889-6.297-10.495z"/>
<path d="m410 152.22l-4.408 6.297s0.91 1.26 4.408 1.26l4.408-1.26-4.408-6.297z"/>
</g>
<path d="m415.41 167.01l-0.643-1.092c-0.951 0.411-2.447 0.78-4.765 0.78s-3.814-0.369-4.765-0.78l-0.643 1.092c1.123 0.514 2.829 0.947 5.408 0.947s4.285-0.433 5.408-0.947zm-1.732-6.571l-0.659-1.097c-0.677 0.234-1.646 0.429-3.017 0.429s-2.34-0.195-3.017-0.43l-0.659 1.098c0.834 0.327 2.016 0.591 3.676 0.591s2.842-0.264 3.676-0.591z" fill="#f99d60"/>
<line x1="608.19" x2="608.19" y1="95.189" y2="89.59" stroke="#fe6b3f" stroke-width="2.519" vector-effect="non-scaling-stroke"/>
<g fill="#fe6b3f">
<path d="m608.19 75.599l-8.187 13.923s2.588 2.519 8.187 2.519l8.186-2.519-8.186-13.923z"/>
<path d="m608.19 72.1l-6.298 10.495s1.051 1.889 6.298 1.889l6.297-1.889-6.297-10.495z"/>
<path d="m608.19 70l-4.409 6.297s0.91 1.26 4.409 1.26l4.408-1.26-4.408-6.297z"/>
</g>
<path d="m613.6 84.796l-0.643-1.092c-0.951 0.411-2.447 0.78-4.765 0.78s-3.815-0.369-4.766-0.78l-0.643 1.092c1.123 0.514 2.829 0.947 5.409 0.947 2.579 0 4.285-0.433 5.408-0.947zm-1.733-6.57l-0.658-1.098c-0.677 0.234-1.647 0.429-3.017 0.429-1.371 0-2.341-0.195-3.018-0.43l-0.658 1.098c0.834 0.327 2.016 0.591 3.676 0.591s2.842-0.264 3.675-0.59z" fill="#f99d60"/>
<line x1="591.81" x2="591.81" y1="112.6" y2="107" stroke="#fe6b3f" stroke-width="2.519" vector-effect="non-scaling-stroke"/>
<g fill="#fe6b3f">
<path d="m591.81 93.004l-8.186 13.923s2.587 2.519 8.186 2.519l8.187-2.519-8.187-13.923z"/>
<path d="m591.81 89.505l-6.297 10.495s1.05 1.889 6.297 1.889l6.298-1.889-6.298-10.495z"/>
<path d="m591.81 87.405l-4.408 6.298s0.91 1.259 4.408 1.259l4.409-1.259-4.409-6.298z"/>
</g>
<path d="m597.22 102.2l-0.643-1.093c-0.951 0.411-2.448 0.78-4.766 0.78s-3.814-0.369-4.765-0.78l-0.643 1.093c1.123 0.513 2.829 0.947 5.408 0.947 2.58 0 4.286-0.434 5.409-0.947zm-1.733-6.571l-0.658-1.098c-0.677 0.235-1.647 0.429-3.018 0.429-1.37 0-2.34-0.194-3.017-0.429l-0.658 1.097c0.833 0.328 2.015 0.592 3.675 0.592s2.842-0.264 3.676-0.591z" fill="#f99d60"/>
<line x1="490" x2="490" y1="177.4" y2="171.81" stroke="#fe6b3f" stroke-width="2.519" vector-effect="non-scaling-stroke"/>
<g fill="#fe6b3f">
<path d="m490 157.82l-8.187 13.923s2.588 2.519 8.187 2.519l8.187-2.519-8.187-13.923z"/>
<path d="m490 154.32l-6.297 10.495s1.05 1.889 6.297 1.889l6.297-1.889-6.297-10.495z"/>
<path d="m490 152.22l-4.408 6.297s0.91 1.26 4.408 1.26l4.408-1.26-4.408-6.297z"/>
</g>
<path d="m495.41 167.01l-0.643-1.092c-0.951 0.411-2.447 0.78-4.765 0.78s-3.814-0.369-4.765-0.78l-0.643 1.092c1.123 0.514 2.829 0.947 5.408 0.947s4.285-0.433 5.408-0.947zm-1.732-6.571l-0.659-1.097c-0.677 0.234-1.646 0.429-3.017 0.429s-2.34-0.195-3.017-0.43l-0.659 1.098c0.834 0.327 2.016 0.591 3.676 0.591s2.842-0.264 3.676-0.591z" fill="#f99d60"/>
<line x1="821.81" x2="821.81" y1="137.78" y2="132.18" stroke="#fe6b3f" stroke-width="2.519" vector-effect="non-scaling-stroke"/>
<g fill="#fe6b3f">
<path d="m821.81 118.19l-8.186 13.922s2.587 2.519 8.186 2.519l8.187-2.519-8.187-13.922z"/>
<path d="m821.81 114.7l-6.297 10.494s1.05 1.89 6.297 1.89l6.298-1.89-6.298-10.494z"/>
<path d="m821.81 112.6l-4.408 6.297s0.91 1.26 4.408 1.26l4.409-1.26-4.409-6.297z"/>
</g>
<path d="m827.22 127.39l-0.643-1.093c-0.951 0.412-2.448 0.781-4.766 0.781s-3.814-0.369-4.765-0.781l-0.643 1.093c1.123 0.514 2.829 0.947 5.408 0.947 2.58 0 4.286-0.433 5.409-0.947zm-1.733-6.571l-0.658-1.097c-0.677 0.234-1.647 0.429-3.018 0.429-1.37 0-2.34-0.195-3.017-0.43l-0.658 1.098c0.833 0.327 2.015 0.591 3.675 0.591s2.842-0.264 3.676-0.591z" fill="#f99d60"/>
<line x1="941.81" x2="941.81" y1="180.38" y2="174.78" stroke="#fe6b3f" stroke-width="2.519" vector-effect="non-scaling-stroke"/>
<g fill="#fe6b3f">
<path d="m941.81 160.79l-8.186 13.923s2.587 2.519 8.186 2.519l8.187-2.519-8.187-13.923z"/>
<path d="m941.81 157.29l-6.297 10.494s1.05 1.889 6.297 1.889l6.298-1.889-6.298-10.494z"/>
<path d="m941.81 155.19l-4.408 6.298s0.91 1.259 4.408 1.259l4.409-1.259-4.409-6.298z"/>
</g>
<path d="m947.22 169.99l-0.643-1.093c-0.951 0.411-2.448 0.78-4.766 0.78s-3.814-0.369-4.765-0.78l-0.643 1.093c1.123 0.514 2.829 0.947 5.408 0.947 2.58 0 4.286-0.433 5.409-0.947zm-1.733-6.571l-0.658-1.098c-0.677 0.235-1.647 0.429-3.018 0.429-1.37 0-2.34-0.194-3.017-0.429l-0.658 1.097c0.833 0.328 2.015 0.592 3.675 0.592s2.842-0.264 3.676-0.591z" fill="#f99d60"/>
<line x1="911.81" x2="911.81" y1="167.78" y2="162.18" stroke="#fe6b3f" stroke-width="2.519" vector-effect="non-scaling-stroke"/>
<g fill="#fe6b3f">
<path d="m911.81 148.19l-8.186 13.922s2.587 2.519 8.186 2.519l8.187-2.519-8.187-13.922z"/>
<path d="m911.81 144.7l-6.297 10.494s1.05 1.89 6.297 1.89l6.298-1.89-6.298-10.494z"/>
<path d="m911.81 142.6l-4.408 6.297s0.91 1.26 4.408 1.26l4.409-1.26-4.409-6.297z"/>
</g>
<path d="m917.22 157.39l-0.643-1.093c-0.951 0.412-2.448 0.781-4.766 0.781s-3.814-0.369-4.765-0.781l-0.643 1.093c1.123 0.514 2.829 0.947 5.408 0.947 2.58 0 4.286-0.433 5.409-0.947zm-1.733-6.571l-0.658-1.097c-0.677 0.234-1.647 0.429-3.018 0.429-1.37 0-2.34-0.195-3.017-0.43l-0.658 1.098c0.833 0.327 2.015 0.591 3.675 0.591s2.842-0.264 3.676-0.591z" fill="#f99d60"/>
<line x1="1091.8" x2="1091.8" y1="202.6" y2="197" stroke="#fe6b3f" stroke-width="2.519" vector-effect="non-scaling-stroke"/>
<g fill="#fe6b3f">
<path d="m1091.8 183l-8.186 13.923s2.587 2.519 8.186 2.519l8.187-2.519-8.187-13.923z"/>
<path d="m1091.8 179.5l-6.297 10.495s1.05 1.889 6.297 1.889l6.298-1.889-6.298-10.495z"/>
<path d="m1091.8 177.4l-4.408 6.298s0.91 1.259 4.408 1.259l4.409-1.259-4.409-6.298z"/>
</g>
<path d="m1097.2 192.2l-0.643-1.093c-0.951 0.411-2.448 0.78-4.766 0.78s-3.814-0.369-4.765-0.78l-0.643 1.093c1.123 0.513 2.829 0.947 5.408 0.947 2.58 0 4.286-0.434 5.409-0.947zm-1.733-6.571l-0.658-1.098c-0.677 0.235-1.647 0.429-3.018 0.429-1.37 0-2.34-0.194-3.017-0.429l-0.658 1.097c0.833 0.328 2.015 0.592 3.675 0.592s2.842-0.264 3.676-0.591z" fill="#f99d60"/>
<line x1="1068.2" x2="1068.2" y1="205.57" y2="199.97" stroke="#fe6b3f" stroke-width="2.519" vector-effect="non-scaling-stroke"/>
<g fill="#fe6b3f">
<path d="m1068.2 185.98l-8.187 13.923s2.588 2.519 8.187 2.519l8.186-2.519-8.186-13.923z"/>
<path d="m1068.2 182.48l-6.298 10.495s1.051 1.889 6.298 1.889l6.297-1.889-6.297-10.495z"/>
<path d="m1068.2 180.38l-4.409 6.297s0.91 1.26 4.409 1.26l4.408-1.26-4.408-6.297z"/>
</g>
<path d="m1073.6 195.18l-0.643-1.093c-0.951 0.412-2.447 0.781-4.765 0.781s-3.815-0.369-4.766-0.781l-0.643 1.093c1.123 0.514 2.829 0.947 5.409 0.947 2.579 0 4.285-0.433 5.408-0.947zm-1.733-6.571l-0.658-1.097c-0.677 0.234-1.647 0.429-3.017 0.429-1.371 0-2.341-0.195-3.018-0.43l-0.658 1.098c0.834 0.327 2.016 0.591 3.676 0.591s2.842-0.264 3.675-0.591z" fill="#f99d60"/>
<line x1="1210" x2="1210" y1="150.38" y2="144.78" stroke="#fe6b3f" stroke-width="2.519" vector-effect="non-scaling-stroke"/>
<g fill="#fe6b3f">
<path d="m1210 130.79l-8.187 13.923s2.588 2.519 8.187 2.519l8.187-2.519-8.187-13.923z"/>
<path d="m1210 127.29l-6.297 10.494s1.05 1.889 6.297 1.889l6.297-1.889-6.297-10.494z"/>
<path d="m1210 125.19l-4.408 6.298s0.91 1.259 4.408 1.259l4.408-1.259-4.408-6.298z"/>
</g>
<path d="m1215.4 139.99l-0.643-1.093c-0.951 0.411-2.447 0.78-4.765 0.78s-3.814-0.369-4.765-0.78l-0.643 1.093c1.123 0.514 2.829 0.947 5.408 0.947s4.285-0.433 5.408-0.947zm-1.732-6.571l-0.659-1.098c-0.677 0.235-1.646 0.429-3.017 0.429s-2.34-0.194-3.017-0.429l-0.659 1.097c0.834 0.328 2.016 0.592 3.676 0.592s2.842-0.264 3.676-0.591z" fill="#f99d60"/>
<line x1="1188.2" x2="1188.2" y1="155.19" y2="149.59" stroke="#fe6b3f" stroke-width="2.519" vector-effect="non-scaling-stroke"/>
<g fill="#fe6b3f">
<path d="m1188.2 135.6l-8.187 13.923s2.588 2.519 8.187 2.519l8.186-2.519-8.186-13.923z"/>
<path d="m1188.2 132.1l-6.298 10.495s1.051 1.889 6.298 1.889l6.297-1.889-6.297-10.495z"/>
<path d="m1188.2 130l-4.409 6.297s0.91 1.26 4.409 1.26l4.408-1.26-4.408-6.297z"/>
</g>
<path d="m1193.6 144.8l-0.643-1.092c-0.951 0.411-2.447 0.78-4.765 0.78s-3.815-0.369-4.766-0.78l-0.643 1.092c1.123 0.514 2.829 0.947 5.409 0.947 2.579 0 4.285-0.433 5.408-0.947zm-1.733-6.57l-0.658-1.098c-0.677 0.234-1.647 0.429-3.017 0.429-1.371 0-2.341-0.195-3.018-0.43l-0.658 1.098c0.834 0.327 2.016 0.591 3.676 0.591s2.842-0.264 3.675-0.59z" fill="#f99d60"/>
<line x1="1291.8" x2="1291.8" y1="180.38" y2="174.78" stroke="#fe6b3f" stroke-width="2.519" vector-effect="non-scaling-stroke"/>
<g fill="#fe6b3f">
<path d="m1291.8 160.79l-8.186 13.923s2.587 2.519 8.186 2.519l8.187-2.519-8.187-13.923z"/>
<path d="m1291.8 157.29l-6.297 10.494s1.05 1.889 6.297 1.889l6.298-1.889-6.298-10.494z"/>
<path d="m1291.8 155.19l-4.408 6.298s0.91 1.259 4.408 1.259l4.409-1.259-4.409-6.298z"/>
</g>
<path d="m1297.2 169.99l-0.643-1.093c-0.951 0.411-2.448 0.78-4.766 0.78s-3.814-0.369-4.765-0.78l-0.643 1.093c1.123 0.514 2.829 0.947 5.408 0.947 2.58 0 4.286-0.433 5.409-0.947zm-1.733-6.571l-0.658-1.098c-0.677 0.235-1.647 0.429-3.018 0.429-1.37 0-2.34-0.194-3.017-0.429l-0.658 1.097c0.833 0.328 2.015 0.592 3.675 0.592s2.842-0.264 3.676-0.591z" fill="#f99d60"/>
</g>
<path d="m0 220q28.455 23.181 70 20c41.545-3.181 78.922-33.324 110-50q31.078-16.676 30 0-3.45 18.985 40-10t70-50q-0.97-7.879 30 10c30.97 17.879 49.56 28.392 60 30s10.09-16.46 30-10 9.201 18.688 30 10 38.545-6.693 70-30 73.038-60.656 90-60 46.407-38.347 60-30 18.95 12.776 30 20q11.05 7.224 100 60 24.799 0.701 40 10c15.201 9.299 53.847 21.528 80 30q26.153 8.472 50 20 29.462 2.354 50 10c20.538 7.646 33.128-7.053 50-10s23.658-33.028 40-30 23.595-5.867 50-10q26.405-4.133 50-10 1.817 23.244 20 30c18.183 6.756 27.495 14.96 40 10q12.505-4.96 30-10 4.297 30.935 20 30c15.703-0.935 30-1.729 30 10q0 11.75 0 550v10h-1370v-550z" fill="#fe6b3f"/>
<path d="m0 230q28.455 23.181 70 20c41.545-3.181 78.922-33.324 110-50q31.078-16.676 30 0-3.45 18.985 40-10t70-50q-0.97-7.879 30 10c30.97 17.879 49.56 28.392 60 30s10.09-16.46 30-10 9.201 18.688 30 10 38.545-6.693 70-30 73.038-60.656 90-60 46.407-38.347 60-30 18.95 12.776 30 20q11.05 7.224 100 60 24.799 0.701 40 10c15.201 9.299 53.847 21.528 80 30q26.153 8.472 50 20 29.462 2.354 50 10c20.538 7.646 33.128-7.053 50-10s23.658-33.028 40-30 23.595-5.867 50-10q26.405-4.133 50-10 1.817 23.244 20 30c18.183 6.756 27.495 14.96 40 10q12.505-4.96 30-10 4.297 30.935 20 30c15.703-0.935 30-1.729 30 10q0 14.5 0 550h-1370v-540z" fill="#fe6b3f"/>
<clipPath id="a">
<path d="m0 230q28.455 23.181 70 20c41.545-3.181 78.922-33.324 110-50q31.078-16.676 30 0-3.45 18.985 40-10t70-50q-0.97-7.879 30 10c30.97 17.879 49.56 28.392 60 30s10.09-16.46 30-10 9.201 18.688 30 10 38.545-6.693 70-30 73.038-60.656 90-60 46.407-38.347 60-30 18.95 12.776 30 20q11.05 7.224 100 60 24.799 0.701 40 10c15.201 9.299 53.847 21.528 80 30q26.153 8.472 50 20 29.462 2.354 50 10c20.538 7.646 33.128-7.053 50-10s23.658-33.028 40-30 23.595-5.867 50-10q26.405-4.133 50-10 1.817 23.244 20 30c18.183 6.756 27.495 14.96 40 10q12.505-4.96 30-10 4.297 30.935 20 30c15.703-0.935 30-1.729 30 10q0 14.5 0 550h-1370v-540z" fill="#fe6b3f"/>
</clipPath>
<g clip-path="url(#a)" fill="#f99d60">
<path d="m490 174.41l130-110 60-10q23 23 10 40c-13 17-9-2-30 20s10 19 10 30 7 17-20 20-27 26-40 30-27 14-40 10q-13-4-40 0-1 0-10-10t-30-20z"/>
<path d="m430 150c8.5 13.5 7.5 34.5 0 30s-39-15-50-30q-11-15-70-50v20q36 17.5 40 40c4 22.5-32.5-5-50 10s-5.5 15.5-10 20-11-4.5-20 0-8-3.5-20 0-15.5 12-20 0q-4.5-12-20-20 0 24-11 25c-11 1-17.5 12.5-26 15s-12.5 8-9 12 11 13.5 7 17-8 5.5-13 6q-5 0.5-22 8l-46-13 50-90 160-110 130 110z"/>
<path d="m820 110q11 67-10 70-23 10 0 10c23 0 28-51 130-30s126 47 90 100q-36 53 130-40-4-54 70-80c74-26-13 84 30 90s16-10 60-60q44-50-80-110l-420 50z"/>
</g>
</g>
</svg>
