<?xml version="1.0" encoding="UTF-8"?>
<svg style="isolation:isolate" viewBox="0 0 1370 770" xmlns="http://www.w3.org/2000/svg">
<g style="isolation:isolate">
<linearGradient id="b" x1="52.136%" x2="52.136%" y1=".050251%" y2="100.15%">
<stop stop-color="#96346d" offset="0"/>
<stop stop-color="#4a2050" offset="1"/>
</linearGradient>
<rect y="484.58" width="1370" height="285.42" fill="url(#b)"/>
<defs>
<filter id="a" x="-200%" y="-200%" width="400%" height="400%">
<feGaussianBlur stdDeviation="8.587218125678056" xmlns="http://www.w3.org/2000/svg"/>
</filter>
</defs>
<g filter="url(#a)">
<path d="m51.633 541.67q35.857-3.443 91.075-12.686c55.219-9.242 163.65 5.355 199.79-6.342s193.91-25.37 285.42-25.37c91.505 0 181.58 19.027 285.42 19.027s209.12 12.685 313.96 12.685q104.84 0 77.306-6.342v-38.056h-1253v57.084z" fill="#622659" fill-opacity=".5"/>
</g>
<path d="m0 227.71q87.49 15.49 142.71 57.084c55.219 41.593 163.65-24.096 199.79 28.541s193.91 114.17 285.42 114.17c91.505 0 181.58-85.625 285.42-85.625s209.12-57.083 313.96-57.083q104.84 0 142.71 28.541v171.25h-1370v-256.88z" fill="#622659"/>
<g fill="#622659" style="isolation:isolate">
<path d="m323.47 280.51l9.514 57.084h-19.028l9.514-57.084z"/>
<path d="m9.514 223.43l9.514 57.083h-19.028l9.514-57.083z"/>
<path d="m38.056 223.43l9.513 57.083h-19.027l9.514-57.083z"/>
<path d="m76.111 223.43l9.514 57.083h-19.028l9.514-57.083z"/>
<path d="m104.65 251.97l9.514 57.083h-19.028l9.514-57.083z"/>
<path d="m133.19 251.97l9.514 57.083h-19.027l9.513-57.083z"/>
<path d="m180.76 280.51l9.514 57.084h-19.028l9.514-57.084z"/>
<path d="m272.1 266.24l9.514 57.083h-19.028l9.514-57.083z"/>
<path d="m255.69 274.09l9.514 57.083h-19.028l9.514-57.083z"/>
<path d="m230.71 268.38l9.514 57.084h-19.028l9.514-57.084z"/>
<path d="m152.22 268.38l9.514 57.084h-19.028l9.514-57.084z"/>
<path d="m352.01 309.05l9.514 57.083h-19.028l9.514-57.083z"/>
<path d="m504.24 394.68l9.514 57.083h-19.028l9.514-57.083z"/>
<path d="m475.69 394.68l9.514 57.083h-19.027l9.513-57.083z"/>
<path d="m409.1 342.59l9.514 57.083h-19.028l9.514-57.083z"/>
<path d="m1351 285.5l9.514 57.084h-19.028l9.514-57.084z"/>
<path d="m1312.9 268.38l9.514 57.084h-19.028l9.514-57.084z"/>
<path d="m1293.9 285.5l9.514 57.084h-19.028l9.514-57.084z"/>
<path d="m1236.8 266.24l9.513 57.083h-19.027l9.514-57.083z"/>
<path d="m437.64 371.13l9.514 57.084h-19.028l9.514-57.084z"/>
<path d="m1170.2 268.38l9.514 57.084h-19.028l9.514-57.084z"/>
<path d="m799.17 366.14l9.514 57.084h-19.028l9.514-57.084z"/>
<path d="m1075.1 296.92l9.514 57.083h-19.027l9.513-57.083z"/>
<path d="m1122.6 280.51l9.514 57.084h-19.028l9.514-57.084z"/>
<path d="m960.9 309.05l9.514 57.083h-19.028l9.514-57.083z"/>
<path d="m856.25 331.17l9.514 57.083h-19.028l9.514-57.083z"/>
<path d="m1018 302.63l9.514 57.084h-19.028l9.514-57.084z"/>
<path d="m608.89 423.22l9.514 57.083h-19.028l9.514-57.083z"/>
<path d="m627.92 399.67l9.514 57.083h-19.028l9.514-57.083z"/>
<path d="m209.31 285.5l9.513 57.084h-19.027l9.514-57.084z"/>
<path d="m751.6 371.13l9.514 57.084h-19.028l9.514-57.084z"/>
<path d="m900.73 313.33l9.514 57.084h-19.027l9.513-57.084z"/>
<path d="m927.84 319.76l9.514 57.084h-19.028l9.514-57.084z"/>
<path d="m1138.3 268.38l9.514 57.084h-19.028l9.514-57.084z"/>
<path d="m1222.5 259.82l9.514 57.083h-19.028l9.514-57.083z"/>
<path d="m1093.4 281.94l9.514 57.083h-19.028l9.514-57.083z"/>
<path d="m836.51 331.88l9.514 57.084h-19.028l9.514-57.084z"/>
</g>
</g>
</svg>
