<?xml version="1.0" encoding="UTF-8"?>
<svg style="isolation:isolate" viewBox="0 0 1370 770" xmlns="http://www.w3.org/2000/svg">
<g style="isolation:isolate">
<path d="m0 234.78q87.203-135.68 114.17-85.625c26.964 50.056 23.521 90.215 57.083 85.625 33.562-4.589 28.972-55.936 57.083-28.541 28.112 27.394 144.83 160.24 199.79 114.17 72.717-60.955 97.673 25.817 142.71 28.542 45.036 2.725 170.24-77.39 199.79-57.083 27.968 19.219 105.7-56.223 114.17-85.625 8.462-29.403 75.011-10.614 85.625 0q72.86-38.008 85.625-28.542c12.765 9.466 56.94 28.542 85.625 28.542s59.952-25.674 85.625 0q25.673 25.673 142.71 0v228.33h-1370v-199.79z" fill="#96346f"/>
</g>
</svg>
