<?xml version="1.0" encoding="UTF-8"?>
<svg style="isolation:isolate" viewBox="0 0 1370 770" xmlns="http://www.w3.org/2000/svg">
<g style="isolation:isolate">
<path d="m0 215.36q102.98 31.136 142.71 31.136c39.729 0 83.617-124.54 114.17-124.54q30.55 0 85.625-93.409 85.625 45.218 85.625 93.409c0 48.191 28.542 5.007 28.542 62.272q0 57.266 85.625 0 43.744-45.687 57.083-31.136c13.339 14.551 37.147 0 57.083 0s39.442-31.136 85.625-31.136 61.386 31.136 85.625 31.136 1.865 31.136 28.542 31.136 100.4-15.02 142.71 31.137c42.311 46.157 140.13 2.816 171.25-31.137q31.124-33.952 114.17 0 30.263-62.272 57.083-62.272 26.821 0 28.542 31.136v217.96h-1370v-155.68z" fill="#e9564f"/>
<path d="m0 201.09q102.98 31.136 142.71 31.136c39.729 0 83.617-124.54 114.17-124.54q30.55 0 85.625-93.409 85.625 45.218 85.625 93.409c0 48.191 28.542 5.007 28.542 62.273q0 57.266 85.625 0 43.744-45.688 57.083-31.137c13.339 14.551 37.147 0 57.083 0s39.442-31.136 85.625-31.136 61.386 31.136 85.625 31.136 1.865 31.137 28.542 31.137 100.4-15.021 142.71 31.136c42.311 46.157 140.13 2.816 171.25-31.136q31.124-33.953 114.17 0 30.263-62.273 57.083-62.273 26.821 0 28.542 31.136v217.96h-1370v-155.68z" fill="#e9564f"/>
<clipPath id="a">
<path d="m0 201.09q102.98 31.136 142.71 31.136c39.729 0 83.617-124.54 114.17-124.54q30.55 0 85.625-93.409 85.625 45.218 85.625 93.409c0 48.191 28.542 5.007 28.542 62.273q0 57.266 85.625 0 43.744-45.688 57.083-31.137c13.339 14.551 37.147 0 57.083 0s39.442-31.136 85.625-31.136 61.386 31.136 85.625 31.136 1.865 31.137 28.542 31.137 100.4-15.021 142.71 31.136c42.311 46.157 140.13 2.816 171.25-31.136q31.124-33.953 114.17 0 30.263-62.273 57.083-62.273 26.821 0 28.542 31.136v217.96h-1370v-155.68z" fill="#e9564f"/>
</clipPath>
<g clip-path="url(#a)">
<path d="m542.29 171.25q43.458 39.299 28.541 57.083c-14.916 17.785 34.136-6.597 28.542-85.625-5.594-79.027 111.44 7.315 85.625 57.084-25.817 49.768-8.319 19.075 28.542 0 36.86-19.076-3.586-123.2 57.083-114.17 12.31 1.833 47.094 48.521 57.083 85.625 3.57-35.7 22.834-74.208 28.542 28.542q51.375 19.979 228.33-114.17 80.032 73.29 57.084 142.71c-22.948 69.418 111.58 7.172 85.625-85.625-25.96-92.796 59.521 31.697 85.625 85.625 26.103 53.928 70.565-162.36 28.541-171.25q-42.023-8.892-884.79-28.541l-114.17-28.542q-260.17 193.34-199.79 228.33 60.382 34.996 142.71 57.084-33.275-44.175-28.542-85.625c4.733-41.45 11.331-15.347 57.083 0 45.753 15.346-16.494-55.793 0-85.625 16.494-29.833 45.753-63.968 28.542-85.625q-17.211-21.658 85.625 0-2.151 126.36 0 142.71c2.151 16.351-3.299-26.964 57.083-28.542 60.382-1.577 3.586 110.87 28.542 85.625q24.956-25.243 28.542-57.083z" fill="#eb8856"/>
</g>
</g>
</svg>
