<?xml version="1.0" encoding="UTF-8" standalone="no"?>
<!-- Generator: Gravit.io -->
<svg style="isolation:isolate" xmlns="http://www.w3.org/2000/svg" height="770" width="1370" xmlns:xlink="http://www.w3.org/1999/xlink" viewBox="0 0 1370 770">
 <g id="CAMADA 2" style="isolation:isolate">
  <g id="Arvores" style="isolation:isolate">
   <g id="null">
    <line stroke-width="18" y2="509.99" vector-effect="non-scaling-stroke" x2="58.5" stroke="#510232" y1="550" x1="58.5"/>
    <g id="null" fill="#510232">
     <path d="m58.5 410.01l-58.5 99.49s18.491 18 58.5 18l58.5-18-58.5-99.49z"/>
     <path d="m58.5 385.01l-45 74.99s7.506 13.5 45 13.5l45-13.5-45-74.99z"/>
     <path d="m58.5 370l-31.5 45s6.502 9 31.5 9c0 0 31.5-9 31.5-9l-31.5-45z"/>
    </g>
    <path d="m97.146 475.73l-4.595-7.81c-6.795 2.94-17.487 5.58-34.051 5.58s-27.256-2.64-34.051-5.58l-4.595 7.81c8.023 3.67 20.214 6.77 38.646 6.77s30.623-3.1 38.646-6.77zm-12.38-46.95l-4.706-7.84c-4.838 1.67-11.763 3.06-21.56 3.06s-16.722-1.39-21.56-3.07l-4.706 7.85c5.957 2.33 14.404 4.22 26.266 4.22s20.309-1.89 26.266-4.22z" fill="#660840"/>
   </g>
   <g id="null">
    <line stroke-width="18" y2="549.99" vector-effect="non-scaling-stroke" x2="190" stroke="#510232" y1="590" x1="190"/>
    <g id="null" fill="#510232">
     <path d="m190 450.01l-58.5 99.49s18.49 18 58.5 18l58.5-18-58.5-99.49z"/>
     <path d="m190 425.01l-45 74.99s7.51 13.5 45 13.5l45-13.5-45-74.99z"/>
     <path d="m190 410l-31.5 45s6.5 9 31.5 9c0 0 31.5-9 31.5-9l-31.5-45z"/>
    </g>
    <path d="m228.65 515.73l-4.6-7.81c-6.79 2.94-17.49 5.58-34.05 5.58s-27.26-2.64-34.05-5.58l-4.6 7.81c8.03 3.67 20.22 6.77 38.65 6.77s30.62-3.1 38.65-6.77zm-12.38-46.95l-4.71-7.84c-4.84 1.67-11.76 3.06-21.56 3.06s-16.72-1.39-21.56-3.07l-4.71 7.85c5.96 2.33 14.41 4.22 26.27 4.22s20.31-1.89 26.27-4.22z" fill="#660840"/>
   </g>
   <g id="null">
    <line stroke-width="18" y2="579.99" vector-effect="non-scaling-stroke" x2="521.5" stroke="#510232" y1="620" x1="521.5"/>
    <g id="null" fill="#510232">
     <path d="m521.5 480.01l-58.5 99.49s18.49 18 58.5 18l58.5-18-58.5-99.49z"/>
     <path d="m521.5 455.01l-45 74.99s7.51 13.5 45 13.5l45-13.5-45-74.99z"/>
     <path d="m521.5 440l-31.5 45s6.5 9 31.5 9c0 0 31.5-9 31.5-9l-31.5-45z"/>
    </g>
    <path d="m560.15 545.73l-4.6-7.81c-6.79 2.94-17.49 5.58-34.05 5.58s-27.26-2.64-34.05-5.58l-4.6 7.81c8.03 3.67 20.22 6.77 38.65 6.77s30.62-3.1 38.65-6.77zm-12.38-46.95l-4.71-7.84c-4.84 1.67-11.76 3.06-21.56 3.06s-16.72-1.39-21.56-3.07l-4.71 7.85c5.96 2.33 14.41 4.22 26.27 4.22s20.31-1.89 26.27-4.22z" fill="#660840"/>
   </g>
   <g id="null">
    <line stroke-width="18" y2="619.99" vector-effect="non-scaling-stroke" x2="1028.5" stroke="#510232" y1="660" x1="1028.5"/>
    <g id="null" fill="#510232">
     <path d="m1028.5 520.01l-58.5 99.49s18.49 18 58.5 18l58.5-18-58.5-99.49z"/>
     <path d="m1028.5 495.01l-45 74.99s7.51 13.5 45 13.5l45-13.5-45-74.99z"/>
     <path d="m1028.5 480l-31.5 45s6.5 9 31.5 9c0 0 31.5-9 31.5-9l-31.5-45z"/>
    </g>
    <path d="m1067.1 585.73l-4.5-7.81c-6.8 2.94-17.5 5.58-34.1 5.58s-27.3-2.64-34.05-5.58l-4.6 7.81c8.03 3.67 20.25 6.77 38.65 6.77s30.6-3.1 38.6-6.77zm-12.3-46.95l-4.7-7.84c-4.9 1.67-11.8 3.06-21.6 3.06s-16.7-1.39-21.6-3.07l-4.7 7.85c6 2.33 14.4 4.22 26.3 4.22s20.3-1.89 26.3-4.22z" fill="#660840"/>
   </g>
   <g id="null">
    <line stroke-width="18" y2="599.99" vector-effect="non-scaling-stroke" x2="818.5" stroke="#510232" y1="640" x1="818.5"/>
    <g id="null" fill="#510232">
     <path d="m818.5 500.01l-58.5 99.49s18.49 18 58.5 18l58.5-18-58.5-99.49z"/>
     <path d="m818.5 475.01l-45 74.99s7.51 13.5 45 13.5l45-13.5-45-74.99z"/>
     <path d="m818.5 460l-31.5 45s6.5 9 31.5 9c0 0 31.5-9 31.5-9l-31.5-45z"/>
    </g>
    <path d="m857.15 565.73l-4.6-7.81c-6.79 2.94-17.49 5.58-34.05 5.58s-27.26-2.64-34.05-5.58l-4.6 7.81c8.03 3.67 20.22 6.77 38.65 6.77s30.62-3.1 38.65-6.77zm-12.38-46.95l-4.71-7.84c-4.84 1.67-11.76 3.06-21.56 3.06s-16.72-1.39-21.56-3.07l-4.71 7.85c5.96 2.33 14.41 4.22 26.27 4.22s20.31-1.89 26.27-4.22z" fill="#660840"/>
   </g>
   <g id="null">
    <line stroke-width="18" y2="549.99" vector-effect="non-scaling-stroke" x2="731.5" stroke="#510232" y1="590" x1="731.5"/>
    <g id="null" fill="#510232">
     <path d="m731.5 450.01l-58.5 99.49s18.49 18 58.5 18l58.5-18-58.5-99.49z"/>
     <path d="m731.5 425.01l-45 74.99s7.51 13.5 45 13.5l45-13.5-45-74.99z"/>
     <path d="m731.5 410l-31.5 45s6.5 9 31.5 9c0 0 31.5-9 31.5-9l-31.5-45z"/>
    </g>
    <path d="m770.15 515.73l-4.6-7.81c-6.79 2.94-17.49 5.58-34.05 5.58s-27.26-2.64-34.05-5.58l-4.6 7.81c8.03 3.67 20.22 6.77 38.65 6.77s30.62-3.1 38.65-6.77zm-12.38-46.95l-4.71-7.84c-4.84 1.67-11.76 3.06-21.56 3.06s-16.72-1.39-21.56-3.07l-4.71 7.85c5.96 2.33 14.41 4.22 26.27 4.22s20.31-1.89 26.27-4.22z" fill="#660840"/>
   </g>
   <g id="null">
    <line stroke-width="18" y2="599.99" vector-effect="non-scaling-stroke" x2="1178.5" stroke="#510232" y1="640" x1="1178.5"/>
    <g id="null" fill="#510232">
     <path d="m1178.5 500.01l-58.5 99.49s18.5 18 58.5 18l58.5-18-58.5-99.49z"/>
     <path d="m1178.5 475.01l-45 74.99s7.5 13.5 45 13.5l45-13.5-45-74.99z"/>
     <path d="m1178.5 460l-31.5 45s6.5 9 31.5 9c0 0 31.5-9 31.5-9l-31.5-45z"/>
    </g>
    <path d="m1217.1 565.73l-4.5-7.81c-6.8 2.94-17.5 5.58-34.1 5.58s-27.3-2.64-34.1-5.58l-4.5 7.81c8 3.67 20.2 6.77 38.6 6.77s30.6-3.1 38.6-6.77zm-12.3-46.95l-4.7-7.84c-4.9 1.67-11.8 3.06-21.6 3.06s-16.7-1.39-21.6-3.07l-4.7 7.85c6 2.33 14.4 4.22 26.3 4.22s20.3-1.89 26.3-4.22z" fill="#660840"/>
   </g>
   <g id="null">
    <line stroke-width="18" y2="619.99" vector-effect="non-scaling-stroke" x2="1295.5" stroke="#510232" y1="660" x1="1295.5"/>
    <g id="null" fill="#510232">
     <path d="m1295.5 520.01l-58.5 99.49s18.5 18 58.5 18l58.5-18-58.5-99.49z"/>
     <path d="m1295.5 495.01l-45 74.99s7.5 13.5 45 13.5l45-13.5-45-74.99z"/>
     <path d="m1295.5 480l-31.5 45s6.5 9 31.5 9c0 0 31.5-9 31.5-9l-31.5-45z"/>
    </g>
    <path d="m1334.1 585.73l-4.5-7.81c-6.8 2.94-17.5 5.58-34.1 5.58s-27.3-2.64-34.1-5.58l-4.5 7.81c8 3.67 20.2 6.77 38.6 6.77s30.6-3.1 38.6-6.77zm-12.3-46.95l-4.7-7.84c-4.9 1.67-11.8 3.06-21.6 3.06s-16.7-1.39-21.6-3.07l-4.7 7.85c6 2.33 14.4 4.22 26.3 4.22s20.3-1.89 26.3-4.22z" fill="#660840"/>
   </g>
   <g id="null">
    <line stroke-width="18" y2="599.99" vector-effect="non-scaling-stroke" x2="425" stroke="#510232" y1="640" x1="425"/>
    <g id="null" fill="#510232">
     <path d="m425 500.01l-58.5 99.49s18.49 18 58.5 18l58.5-18-58.5-99.49z"/>
     <path d="m425 475.01l-45 74.99s7.51 13.5 45 13.5l45-13.5-45-74.99z"/>
     <path d="m425 460l-31.5 45s6.5 9 31.5 9c0 0 31.5-9 31.5-9l-31.5-45z"/>
    </g>
    <path d="m463.65 565.73l-4.6-7.81c-6.79 2.94-17.49 5.58-34.05 5.58s-27.26-2.64-34.05-5.58l-4.6 7.81c8.03 3.67 20.22 6.77 38.65 6.77s30.62-3.1 38.65-6.77zm-12.38-46.95l-4.71-7.84c-4.84 1.67-11.76 3.06-21.56 3.06s-16.72-1.39-21.56-3.07l-4.71 7.85c5.96 2.33 14.41 4.22 26.27 4.22s20.31-1.89 26.27-4.22z" fill="#660840"/>
   </g>
  </g>
  <path d="m0 540q133.54-71.39 150-50c16.46 21.39 9.09 72.27 90 70s124.65 21.68 180 20 119.96-5.71 140-20 175.75-74.89 200-30 60.24 36.24 80 50 126.92 66.77 160 60c33.1-6.77 64.5-84.59 90-80q25.5 4.59 130 40-0.8 15.94 40 10t80-20h30v180h-1370v-230z" fill="#510232"/>
  <path d="m0 550q131.54-68.93 148-47.53c16.46 21.39 9.09 72.27 90 70 80.91-2.28 124.65 21.68 180 20 55.35-1.69 119.96-5.72 140-20 20.04-14.29 175.75-74.89 200-30 24.25 44.88 60.24 36.23 80 50 19.76 13.76 126.92 66.76 160 60 33.1-6.77 64.5-84.59 90-80q25.5 4.59 130 40-0.8 15.94 40 10t80-20h30l2 167.53h-1370v-220z" fill="#510232"/>
  <clipPath id="_clipPath_EboWwEMxTNmYpoEyexUmqsMU3lwfbnuc">
   <path d="m0 550q131.54-68.93 148-47.53c16.46 21.39 9.09 72.27 90 70 80.91-2.28 124.65 21.68 180 20 55.35-1.69 119.96-5.72 140-20 20.04-14.29 175.75-74.89 200-30 24.25 44.88 60.24 36.23 80 50 19.76 13.76 126.92 66.76 160 60 33.1-6.77 64.5-84.59 90-80q25.5 4.59 130 40-0.8 15.94 40 10t80-20h30l2 167.53h-1370v-220z" fill="#510232"/>
  </clipPath>
  <g clip-path="url(#_clipPath_EboWwEMxTNmYpoEyexUmqsMU3lwfbnuc)">
   <path d="m0 670q206 34.47 140-77.53c-66-112 58-122 100-120s-68 112-10 130 156-10 170-30l10 10q8 22 80 20t90-20q112 38 140 10c28-28 34-32 20-90q-14-58 110 40 110 134 160 130c50-4 68-42 110-40s-30-52-60-80q-30-28 200 0-52 84-20 90c32 6 78-20 100 0q22 20 30-40l-190-220-1130 10-50 137.53v140z" fill="#660840"/>
  </g>
 </g>
</svg>
