<?xml version="1.0" encoding="UTF-8"?>
<svg style="isolation:isolate" viewBox="0 0 1370 770" xmlns="http://www.w3.org/2000/svg">
<g style="isolation:isolate">
<g style="isolation:isolate">
<line x1="66.999" x2="66.999" y1="330" y2="314.27" stroke="#c7273f" stroke-width="7.077" vector-effect="non-scaling-stroke"/>
<g fill="#c7273f">
<path d="m66.999 274.96l-23.001 39.118s7.27 7.077 23.001 7.077l23.001-7.077-23.001-39.118z"/>
<path d="m66.999 265.13l-17.693 29.486s2.951 5.308 17.693 5.308l17.693-5.308-17.693-29.486z"/>
<path d="m66.999 259.23l-12.385 17.693s2.556 3.539 12.385 3.539l12.385-3.539-12.385-17.693z"/>
</g>
<path d="m82.194 300.8l-1.807-3.07c-2.671 1.156-6.875 2.193-13.388 2.193s-10.717-1.037-13.389-2.193l-1.806 3.07c3.155 1.444 7.948 2.661 15.195 2.661s12.04-1.217 15.195-2.661zm-4.868-18.461l-1.85-3.084c-1.902 0.658-4.625 1.205-8.477 1.205s-6.575-0.547-8.477-1.207l-1.851 3.084c2.343 0.92 5.664 1.662 10.328 1.662s7.985-0.742 10.327-1.66z" fill="#fd314f"/>
<line x1="227" x2="227" y1="365.39" y2="349.66" stroke="#c7273f" stroke-width="7.077" vector-effect="non-scaling-stroke"/>
<g fill="#c7273f">
<path d="m227 310.34l-23.001 39.117s7.27 7.078 23.001 7.078c0 0 23.001-7.078 23.001-7.078l-23.001-39.117z"/>
<path d="m227 300.51l-17.693 29.486s2.951 5.308 17.693 5.308l17.693-5.308-17.693-29.486z"/>
<path d="m227 294.61l-12.385 17.693s2.556 3.538 12.385 3.538l12.385-3.538-12.385-17.693z"/>
</g>
<path d="m242.19 336.19l-1.807-3.07c-2.671 1.155-6.875 2.192-13.388 2.192s-10.717-1.037-13.389-2.192l-1.806 3.07c3.155 1.443 7.948 2.661 15.195 2.661s12.04-1.218 15.195-2.661zm-4.868-18.462l-1.85-3.083c-1.902 0.658-4.625 1.204-8.477 1.204s-6.575-0.546-8.477-1.206l-1.851 3.084c2.343 0.92 5.664 1.661 10.328 1.661s7.985-0.741 10.327-1.66z" fill="#fd314f"/>
<line x1="170" x2="170" y1="350.77" y2="335.04" stroke="#c7273f" stroke-width="7.077" vector-effect="non-scaling-stroke"/>
<g fill="#c7273f">
<path d="m170 295.73l-23.001 39.118s7.27 7.077 23.001 7.077l23.001-7.077-23.001-39.118z"/>
<path d="m170 285.9l-17.693 29.485s2.951 5.308 17.693 5.308l17.693-5.308-17.693-29.485z"/>
<path d="m170 280l-12.385 17.693s2.556 3.539 12.385 3.539l12.385-3.539-12.385-17.693z"/>
</g>
<path d="m185.2 321.57l-1.807-3.07c-2.671 1.155-6.875 2.192-13.388 2.192s-10.717-1.037-13.388-2.192l-1.807 3.07c3.155 1.444 7.948 2.661 15.195 2.661s12.04-1.217 15.195-2.661zm-4.867-18.461l-1.851-3.084c-1.902 0.658-4.625 1.205-8.477 1.205s-6.575-0.547-8.477-1.207l-1.851 3.084c2.343 0.92 5.664 1.661 10.328 1.661s7.985-0.741 10.328-1.659z" fill="#fd314f"/>
<line x1="412" x2="412" y1="340" y2="324.27" stroke="#c7273f" stroke-width="7.077" vector-effect="non-scaling-stroke"/>
<g fill="#c7273f">
<path d="m412 284.96l-23.001 39.118s7.27 7.077 23.001 7.077l23.001-7.077-23.001-39.118z"/>
<path d="m412 275.13l-17.693 29.486s2.951 5.308 17.693 5.308l17.693-5.308-17.693-29.486z"/>
<path d="m412 269.23l-12.385 17.693s2.556 3.539 12.385 3.539l12.385-3.539-12.385-17.693z"/>
</g>
<path d="m427.19 310.8l-1.807-3.07c-2.671 1.156-6.875 2.193-13.388 2.193s-10.717-1.037-13.389-2.193l-1.806 3.07c3.155 1.444 7.948 2.661 15.195 2.661s12.04-1.217 15.195-2.661zm-4.868-18.461l-1.85-3.084c-1.902 0.658-4.625 1.205-8.477 1.205s-6.575-0.547-8.477-1.207l-1.851 3.084c2.343 0.92 5.664 1.662 10.328 1.662s7.985-0.742 10.327-1.66z" fill="#fd314f"/>
<line x1="354" x2="354" y1="375.39" y2="359.66" stroke="#c7273f" stroke-width="7.077" vector-effect="non-scaling-stroke"/>
<g fill="#c7273f">
<path d="m354 320.34l-23.001 39.117s7.27 7.078 23.001 7.078c0 0 23.001-7.078 23.001-7.078l-23.001-39.117z"/>
<path d="m354 310.51l-17.693 29.486s2.951 5.308 17.693 5.308l17.693-5.308-17.693-29.486z"/>
<path d="m354 304.61l-12.385 17.693s2.556 3.538 12.385 3.538l12.385-3.538-12.385-17.693z"/>
</g>
<path d="m369.19 346.19l-1.807-3.07c-2.672 1.155-6.875 2.192-13.388 2.192s-10.717-1.037-13.389-2.192l-1.806 3.07c3.155 1.443 7.948 2.661 15.195 2.661s12.04-1.218 15.195-2.661zm-4.868-18.462l-1.85-3.083c-1.902 0.658-4.625 1.204-8.477 1.204s-6.575-0.546-8.477-1.206l-1.851 3.084c2.343 0.92 5.664 1.661 10.328 1.661s7.985-0.741 10.327-1.66z" fill="#fd314f"/>
<line x1="297" x2="297" y1="350.77" y2="335.04" stroke="#c7273f" stroke-width="7.077" vector-effect="non-scaling-stroke"/>
<g fill="#c7273f">
<path d="m297 295.73l-23.001 39.118s7.27 7.077 23.001 7.077l23.001-7.077-23.001-39.118z"/>
<path d="m297 285.9l-17.693 29.485s2.951 5.308 17.693 5.308l17.693-5.308-17.693-29.485z"/>
<path d="m297 280l-12.385 17.693s2.556 3.539 12.385 3.539l12.385-3.539-12.385-17.693z"/>
</g>
<path d="m312.19 321.57l-1.807-3.07c-2.671 1.155-6.875 2.192-13.388 2.192s-10.717-1.037-13.389-2.192l-1.806 3.07c3.155 1.444 7.948 2.661 15.195 2.661s12.04-1.217 15.195-2.661zm-4.868-18.461l-1.85-3.084c-1.902 0.658-4.625 1.205-8.477 1.205s-6.575-0.547-8.477-1.207l-1.851 3.084c2.343 0.92 5.664 1.661 10.328 1.661s7.985-0.741 10.327-1.659z" fill="#fd314f"/>
<line x1="783" x2="783" y1="350.77" y2="335.04" stroke="#c7273f" stroke-width="7.077" vector-effect="non-scaling-stroke"/>
<g fill="#c7273f">
<path d="m783 295.73l-23.001 39.118s7.27 7.077 23.001 7.077l23.001-7.077-23.001-39.118z"/>
<path d="m783 285.9l-17.693 29.485s2.951 5.308 17.693 5.308l17.693-5.308-17.693-29.485z"/>
<path d="m783 280l-12.385 17.693s2.557 3.539 12.385 3.539l12.385-3.539-12.385-17.693z"/>
</g>
<path d="m798.2 321.57l-1.806-3.07c-2.672 1.155-6.876 2.192-13.389 2.192s-10.717-1.037-13.388-2.192l-1.807 3.07c3.155 1.444 7.948 2.661 15.195 2.661s12.04-1.217 15.195-2.661zm-4.867-18.461l-1.851-3.084c-1.902 0.658-4.625 1.205-8.477 1.205s-6.575-0.547-8.477-1.207l-1.85 3.084c2.342 0.92 5.663 1.661 10.327 1.661s7.985-0.741 10.328-1.659z" fill="#fd314f"/>
<line x1="750" x2="750" y1="375.39" y2="359.66" stroke="#c7273f" stroke-width="7.077" vector-effect="non-scaling-stroke"/>
<g fill="#c7273f">
<path d="m750 320.34l-23.001 39.117s7.27 7.078 23.001 7.078c0 0 23.001-7.078 23.001-7.078l-23.001-39.117z"/>
<path d="m750 310.51l-17.693 29.486s2.951 5.308 17.693 5.308l17.693-5.308-17.693-29.486z"/>
<path d="m750 304.61l-12.385 17.693s2.556 3.538 12.385 3.538l12.385-3.538-12.385-17.693z"/>
</g>
<path d="m765.2 346.19l-1.807-3.07c-2.671 1.155-6.875 2.192-13.388 2.192s-10.717-1.037-13.388-2.192l-1.807 3.07c3.155 1.443 7.948 2.661 15.195 2.661s12.04-1.218 15.195-2.661zm-4.867-18.462l-1.851-3.083c-1.902 0.658-4.625 1.204-8.477 1.204s-6.575-0.546-8.477-1.206l-1.851 3.084c2.343 0.92 5.664 1.661 10.328 1.661s7.985-0.741 10.328-1.66z" fill="#fd314f"/>
<line x1="690" x2="690" y1="400.77" y2="385.04" stroke="#c7273f" stroke-width="7.077" vector-effect="non-scaling-stroke"/>
<g fill="#c7273f">
<path d="m690 345.73l-23.001 39.118s7.27 7.077 23.001 7.077l23.001-7.077-23.001-39.118z"/>
<path d="m690 335.9l-17.693 29.485s2.951 5.308 17.693 5.308l17.693-5.308-17.693-29.485z"/>
<path d="m690 330l-12.385 17.693s2.556 3.539 12.385 3.539l12.385-3.539-12.385-17.693z"/>
</g>
<path d="m705.2 371.57l-1.807-3.07c-2.671 1.155-6.875 2.192-13.388 2.192s-10.717-1.037-13.388-2.192l-1.807 3.07c3.155 1.444 7.948 2.661 15.195 2.661s12.04-1.217 15.195-2.661zm-4.867-18.461l-1.851-3.084c-1.902 0.658-4.625 1.205-8.477 1.205s-6.575-0.547-8.477-1.207l-1.851 3.084c2.343 0.92 5.664 1.661 10.328 1.661s7.985-0.741 10.328-1.659z" fill="#fd314f"/>
<line x1="644" x2="644" y1="410.77" y2="395.04" stroke="#c7273f" stroke-width="7.077" vector-effect="non-scaling-stroke"/>
<g fill="#c7273f">
<path d="m644 355.73l-23.001 39.118s7.27 7.077 23.001 7.077l23.001-7.077-23.001-39.118z"/>
<path d="m644 345.9l-17.693 29.485s2.951 5.308 17.693 5.308l17.693-5.308-17.693-29.485z"/>
<path d="m644 340l-12.385 17.693s2.556 3.539 12.385 3.539l12.385-3.539-12.385-17.693z"/>
</g>
<path d="m659.19 381.57l-1.807-3.07c-2.672 1.155-6.875 2.192-13.388 2.192s-10.717-1.037-13.389-2.192l-1.806 3.07c3.155 1.444 7.948 2.661 15.195 2.661s12.04-1.217 15.195-2.661zm-4.868-18.461l-1.85-3.084c-1.902 0.658-4.625 1.205-8.477 1.205s-6.575-0.547-8.477-1.207l-1.851 3.084c2.343 0.92 5.664 1.661 10.328 1.661s7.985-0.741 10.327-1.659z" fill="#fd314f"/>
<line x1="470" x2="470" y1="375.39" y2="359.66" stroke="#c7273f" stroke-width="7.077" vector-effect="non-scaling-stroke"/>
<g fill="#c7273f">
<path d="m470 320.34l-23.001 39.117s7.27 7.078 23.001 7.078c0 0 23.001-7.078 23.001-7.078l-23.001-39.117z"/>
<path d="m470 310.51l-17.693 29.486s2.951 5.308 17.693 5.308l17.693-5.308-17.693-29.486z"/>
<path d="m470 304.61l-12.385 17.693s2.556 3.538 12.385 3.538l12.385-3.538-12.385-17.693z"/>
</g>
<path d="m485.2 346.19l-1.807-3.07c-2.671 1.155-6.875 2.192-13.388 2.192s-10.717-1.037-13.388-2.192l-1.807 3.07c3.155 1.443 7.948 2.661 15.195 2.661s12.04-1.218 15.195-2.661zm-4.867-18.462l-1.851-3.083c-1.902 0.658-4.625 1.204-8.477 1.204s-6.575-0.546-8.477-1.206l-1.851 3.084c2.343 0.92 5.664 1.661 10.328 1.661s7.985-0.741 10.328-1.66z" fill="#fd314f"/>
<line x1="917" x2="917" y1="340" y2="324.27" stroke="#c7273f" stroke-width="7.077" vector-effect="non-scaling-stroke"/>
<g fill="#c7273f">
<path d="m917 284.96l-23.001 39.118s7.27 7.077 23.001 7.077l23.001-7.077-23.001-39.118z"/>
<path d="m917 275.13l-17.693 29.486s2.951 5.308 17.693 5.308l17.693-5.308-17.693-29.486z"/>
<path d="m917 269.23l-12.385 17.693s2.556 3.539 12.385 3.539l12.385-3.539-12.385-17.693z"/>
</g>
<path d="m932.19 310.8l-1.807-3.07c-2.671 1.156-6.875 2.193-13.388 2.193s-10.717-1.037-13.389-2.193l-1.806 3.07c3.155 1.444 7.948 2.661 15.195 2.661s12.04-1.217 15.195-2.661zm-4.868-18.461l-1.85-3.084c-1.902 0.658-4.625 1.205-8.477 1.205s-6.575-0.547-8.477-1.207l-1.851 3.084c2.343 0.92 5.664 1.662 10.328 1.662s7.985-0.742 10.327-1.66z" fill="#fd314f"/>
<line x1="1013" x2="1013" y1="330" y2="314.27" stroke="#c7273f" stroke-width="7.077" vector-effect="non-scaling-stroke"/>
<g fill="#c7273f">
<path d="m1013 274.96l-23.001 39.118s7.27 7.077 23.001 7.077l23.001-7.077-23.001-39.118z"/>
<path d="m1013 265.13l-17.693 29.486s2.951 5.308 17.693 5.308l17.693-5.308-17.693-29.486z"/>
<path d="m1013 259.23l-12.385 17.693s2.557 3.539 12.385 3.539l12.385-3.539-12.385-17.693z"/>
</g>
<path d="m1028.2 300.8l-1.806-3.07c-2.672 1.156-6.876 2.193-13.389 2.193s-10.717-1.037-13.388-2.193l-1.807 3.07c3.155 1.444 7.948 2.661 15.195 2.661s12.04-1.217 15.195-2.661zm-4.867-18.461l-1.851-3.084c-1.902 0.658-4.625 1.205-8.477 1.205s-6.575-0.547-8.477-1.207l-1.85 3.084c2.342 0.92 5.663 1.662 10.327 1.662s7.985-0.742 10.328-1.66z" fill="#fd314f"/>
<line x1="1257" x2="1257" y1="269.23" y2="253.5" stroke="#c7273f" stroke-width="7.077" vector-effect="non-scaling-stroke"/>
<g fill="#c7273f">
<path d="m1257 214.19l-23.001 39.117s7.27 7.078 23.001 7.078c0 0 23.001-7.078 23.001-7.078l-23.001-39.117z"/>
<path d="m1257 204.36l-17.693 29.486s2.951 5.308 17.693 5.308l17.693-5.308-17.693-29.486z"/>
<path d="m1257 198.46l-12.385 17.693s2.556 3.538 12.385 3.538l12.385-3.538-12.385-17.693z"/>
</g>
<path d="m1272.2 240.03l-1.807-3.069c-2.671 1.155-6.875 2.192-13.388 2.192s-10.717-1.037-13.389-2.192l-1.806 3.069c3.155 1.444 7.948 2.662 15.195 2.662s12.04-1.218 15.195-2.662zm-4.868-18.461l-1.85-3.084c-1.902 0.659-4.625 1.205-8.477 1.205s-6.575-0.546-8.477-1.206l-1.851 3.084c2.343 0.92 5.664 1.661 10.328 1.661s7.985-0.741 10.327-1.66z" fill="#fd314f"/>
<line x1="1197" x2="1197" y1="269.23" y2="253.5" stroke="#c7273f" stroke-width="7.077" vector-effect="non-scaling-stroke"/>
<g fill="#c7273f">
<path d="m1197 214.19l-23.001 39.117s7.27 7.078 23.001 7.078c0 0 23.001-7.078 23.001-7.078l-23.001-39.117z"/>
<path d="m1197 204.36l-17.693 29.486s2.951 5.308 17.693 5.308l17.693-5.308-17.693-29.486z"/>
<path d="m1197 198.46l-12.385 17.693s2.556 3.538 12.385 3.538l12.385-3.538-12.385-17.693z"/>
</g>
<path d="m1212.2 240.03l-1.807-3.069c-2.671 1.155-6.875 2.192-13.388 2.192s-10.717-1.037-13.389-2.192l-1.806 3.069c3.155 1.444 7.948 2.662 15.195 2.662s12.04-1.218 15.195-2.662zm-4.868-18.461l-1.85-3.084c-1.902 0.659-4.625 1.205-8.477 1.205s-6.575-0.546-8.477-1.206l-1.851 3.084c2.343 0.92 5.664 1.661 10.328 1.661s7.985-0.741 10.327-1.66z" fill="#fd314f"/>
<line x1="1317" x2="1317" y1="304.61" y2="288.88" stroke="#c7273f" stroke-width="7.077" vector-effect="non-scaling-stroke"/>
<g fill="#c7273f">
<path d="m1317 249.57l-23.001 39.118s7.27 7.077 23.001 7.077l23.001-7.077-23.001-39.118z"/>
<path d="m1317 239.74l-17.693 29.485s2.951 5.308 17.693 5.308l17.693-5.308-17.693-29.485z"/>
<path d="m1317 233.84l-12.385 17.693s2.556 3.539 12.385 3.539l12.385-3.539-12.385-17.693z"/>
</g>
<path d="m1332.2 275.41l-1.807-3.07c-2.671 1.155-6.875 2.192-13.388 2.192s-10.717-1.037-13.389-2.192l-1.806 3.07c3.155 1.444 7.948 2.661 15.195 2.661s12.04-1.217 15.195-2.661zm-4.868-18.461l-1.85-3.084c-1.902 0.658-4.625 1.205-8.477 1.205s-6.575-0.547-8.477-1.207l-1.851 3.084c2.343 0.92 5.664 1.661 10.328 1.661s7.985-0.741 10.327-1.659z" fill="#fd314f"/>
<line x1="1137" x2="1137" y1="350.77" y2="335.04" stroke="#c7273f" stroke-width="7.077" vector-effect="non-scaling-stroke"/>
<g fill="#c7273f">
<path d="m1137 295.73l-23.001 39.118s7.27 7.077 23.001 7.077l23.001-7.077-23.001-39.118z"/>
<path d="m1137 285.9l-17.693 29.485s2.951 5.308 17.693 5.308l17.693-5.308-17.693-29.485z"/>
<path d="m1137 280l-12.385 17.693s2.556 3.539 12.385 3.539l12.385-3.539-12.385-17.693z"/>
</g>
<path d="m1152.2 321.57l-1.807-3.07c-2.671 1.155-6.875 2.192-13.388 2.192s-10.717-1.037-13.389-2.192l-1.806 3.07c3.155 1.444 7.948 2.661 15.195 2.661s12.04-1.217 15.195-2.661zm-4.868-18.461l-1.85-3.084c-1.902 0.658-4.625 1.205-8.477 1.205s-6.575-0.547-8.477-1.207l-1.851 3.084c2.343 0.92 5.664 1.661 10.328 1.661s7.985-0.741 10.327-1.659z" fill="#fd314f"/>
</g>
<path d="m0 260q49.641 64.241 60 60c10.359-4.241 54.07-20.377 100 10s65.427 35.957 90 10 77.611 9.327 100 20 54.116-54.636 70-40 10.324 32.166 50 50 51.681 14.709 80 30 97.827-11.266 130-10 129.42-96.118 140-50q10.583 46.118 70-10 79.759-49.784 120-20c40.241 29.784 101.94 40.513 120 30s50.99-111.73 80-80 31.52-17.412 50-10 33.47 66.847 50 50 22.284-21.437 40-20q17.716 1.437 20 20v470h-1370v-510z" fill="#c7273f"/>
<path d="m0 270.77q49.641 64.241 60 60c10.359-4.241 54.07-20.377 100 10s65.427 35.957 90 10c24.573-25.958 77.611 9.326 100 20 22.389 10.673 54.116-54.636 70-40 15.884 14.635 10.324 32.166 50 50s51.681 14.708 80 30c28.319 15.291 97.827-11.267 130-10 32.173 1.266 129.42-96.118 140-50q10.583 46.118 70-10 79.759-49.784 120-20c40.241 29.784 101.94 40.512 120 30 18.058-10.513 50.99-111.73 80-80 29.01 31.733 31.52-17.412 50-10s33.47 66.846 50 50c16.53-16.847 22.284-21.437 40-20q17.716 1.437 20 20v459.23h-1370v-499.23z" fill="#c7273f"/>
<clipPath id="a">
<path d="m0 270.77q49.641 64.241 60 60c10.359-4.241 54.07-20.377 100 10s65.427 35.957 90 10c24.573-25.958 77.611 9.326 100 20 22.389 10.673 54.116-54.636 70-40 15.884 14.635 10.324 32.166 50 50s51.681 14.708 80 30c28.319 15.291 97.827-11.267 130-10 32.173 1.266 129.42-96.118 140-50q10.583 46.118 70-10 79.759-49.784 120-20c40.241 29.784 101.94 40.512 120 30 18.058-10.513 50.99-111.73 80-80 29.01 31.733 31.52-17.412 50-10s33.47 66.846 50 50c16.53-16.847 22.284-21.437 40-20q17.716 1.437 20 20v459.23h-1370v-499.23z" fill="#c7273f"/>
</clipPath>
<g clip-path="url(#a)">
<path d="m70 320.77q40 18 40 40c0 22 54-38 40-60s88 32 90 90 78-106 40-130q-38-24 10-40l50 100q-18 40 60 70c78 30 24-8 10-30s30-80 50-80 148 138 110 160-2 6 110 10 62-76 130-110q68-34 60-80l10-30 10 70q-82 104-10 100c72-4 54-100 150-110s-4 40 60 100 120-110 110-160 34 68 50 70 30-52 10-80q-20-28 30-40 56 120 40 140c-16 20-8 50 10 30q18-20 30-100l-100-130-990 40-210 160z" fill="#fd314f"/>
</g>
</g>
</svg>
