<?xml version="1.0" encoding="UTF-8"?>
<svg width="1370" height="770.14" style="isolation:isolate" viewBox="0 0 1370 770.141" xmlns="http://www.w3.org/2000/svg">
<g fill="#261a32" style="isolation:isolate">
<path d="m0 342.02q28.758 0.216 57.083 28.541c28.326 28.326 32.866 85.625 57.084 85.625 24.217 0 89.517 31.137 114.17 85.625 24.65 54.489 44.11 27.245 57.084 57.084 12.973 29.839 13.189 118.28 114.17 142.71q100.98 24.433 114.17 28.542h-513.75v-428.12z"/>
<path d="m998.96 770.14q47.137-34.38 57.084-57.084c9.946-22.703 13.622-16 28.541-28.541 14.92-12.541 19.244-43.245 57.084-57.084 37.839-13.838 84.76-62.272 85.625-85.625 0.865-23.352 35.461-30.487 57.083-28.541s41.731-24.434 57.083-28.542q15.352-4.108 28.542 0v285.42h-371.04z"/>
<g style="isolation:isolate">
<path d="m459.84 619.58l-28.541 150.56h57.083l-28.542-150.56z"/>
<path d="m356.06 588.9l-28.541 171.25h57.083l-28.542-171.25z"/>
<path d="m407.95 604.24l-28.541 165.9h57.083l-28.542-165.9z"/>
<path d="m327.52 562.5l-28.542 171.25h57.083l-28.541-171.25z"/>
<path d="m1027.5 598.89l-28.542 171.25h57.084l-28.542-171.25z"/>
<path d="m1341.5 354.5l-28.541 171.25h57.083l-28.542-171.25z"/>
<path d="m1312.9 399.1l-28.542 171.25h57.083l-28.541-171.25z"/>
<path d="m1284.4 370.56l-28.542 171.25h57.084l-28.542-171.25z"/>
<path d="m1227.3 427.64l-28.542 171.25h57.083l-28.541-171.25z"/>
<path d="m1170.2 476.88l-28.541 171.25h57.083l-28.542-171.25z"/>
<path d="m1056 570.35l-28.542 171.25h57.083l-28.541-171.25z"/>
<path d="m1084.6 530.39l-28.541 171.25h57.083l-28.542-171.25z"/>
<path d="m1113.1 588.9l-28.542 171.25h57.084l-28.542-171.25z"/>
<path d="m1141.7 484.72l-28.542 171.25h57.083l-28.541-171.25z"/>
<path d="m285.42 528.25l-28.542 171.25h57.083l-28.541-171.25z"/>
<path d="m228.33 440.13l-28.541 171.25h57.083l-28.542-171.25z"/>
<path d="m114.17 419.79l-28.542 171.25h57.083l-28.541-171.25z"/>
<path d="m142.71 362.71l-28.541 171.25h57.083l-28.542-171.25z"/>
<path d="m270.43 525.75l-28.541 171.25h57.083l-28.542-171.25z"/>
<path d="m419.06 755.89l-25.903-139.87-25.822 139.44-2.719 14.683h57.083l-2.639-14.252z"/>
<path d="m426.5 611.38l-28.541 158.76h57.083l-28.542-158.76z"/>
<path d="m57.083 277.08l-28.541 171.25h57.083l-28.542-171.25z"/>
<path d="m199.79 419.79l-28.542 171.25h57.083l-28.541-171.25z"/>
<path d="m85.625 354.5l-28.542 171.25h57.084l-28.542-171.25z"/>
<path d="m0 220v171.25h28.542l-28.542-171.25z"/>
<path d="m244.19 419.79l-28.541 171.25h57.083l-28.542-171.25z"/>
</g>
</g>
</svg>
