<?xml version="1.0" encoding="UTF-8"?>
<svg style="isolation:isolate" viewBox="0 0 1390 790" xmlns="http://www.w3.org/2000/svg">
<g style="isolation:isolate">
<g style="isolation:isolate">
<defs>
<filter id="c" x="-200%" y="-200%" width="400%" height="400%">
<feGaussianBlur stdDeviation="8.587218125678056" xmlns="http://www.w3.org/2000/svg"/>
</filter>
</defs>
<g filter="url(#c)">
<path d="m399.58 655.83q20.325 85.625-28.541 85.625-48.867 0-57.084 28.542h-142.71v-114.17h228.33z" fill="#361d44" fill-opacity=".45"/>
</g>
<path d="m0 284.79q47.33 15.49 85.625 28.541c38.295 13.052 74.725 112.02 114.17 114.17s100.54 45.84 114.17 85.625 15.136 49.515 57.084 57.083c41.947 7.568 37.839 80.436 28.541 85.625-9.297 5.19-61.407 14.055-85.625 28.542-24.217 14.487-44.326-1.73-85.625 28.542q-41.299 30.271-28.541 57.083h-199.79v-485.21z" fill="#361d44"/>
</g>
<g style="isolation:isolate">
<defs>
<filter id="b" x="-200%" y="-200%" width="400%" height="400%">
<feGaussianBlur stdDeviation="8.587218125678056" xmlns="http://www.w3.org/2000/svg"/>
</filter>
</defs>
<g filter="url(#b)">
<path d="m428.12 627.3c18.909 0.357 19.979 6.065 39.958 4.994 19.979-1.07 31.396 3.211 29.256 11.417-2.141 8.205-7.849 20.335-7.136 24.972 0.714 4.638-13.2 7.492-16.411 23.546s-30.683-13.913-36.391-11.416-18.195-15.34-17.839-19.978c0.357-4.638-10.346-33.892 8.563-33.535z" fill="#361d44" fill-opacity=".5"/>
</g>
<path d="m428.12 655.83c18.909-0.356 19.979-6.065 39.958-4.994 19.979 1.07 31.396-3.211 29.256-11.417-2.141-8.206-7.849-20.336-7.136-24.974 0.714-4.638-13.2-7.492-16.411-23.547s-30.683 13.914-36.391 11.417c-5.708-2.498-18.195 15.341-17.839 19.979 0.357 4.638-10.346 33.893 8.563 33.536z" fill="#361d44"/>
</g>
<g style="isolation:isolate">
<defs>
<filter id="a" x="-200%" y="-200%" width="400%" height="400%">
<feGaussianBlur stdDeviation="8.587218125678056" xmlns="http://www.w3.org/2000/svg"/>
</filter>
</defs>
<g filter="url(#a)">
<path d="m884.79 627.29q74.165 0 485.21 0v142.71h-371.04q-47.569-61.408-114.17-92.112c-25.273-11.651-74.165-50.596 0-50.596z" fill="#361d44" fill-opacity=".5"/>
</g>
<path d="m884.79 655.83c74.165 0 215.58 2.163 285.42 28.542 69.841 26.379 128.22-7.135 114.17 28.542q-14.055 35.677-142.71 57.083h228.33v-342.5q-85.409-12.973-114.17 0c-28.758 12.973-30.271 39.785-57.083 28.542-26.812-11.244-74.165 31.568-85.625 28.541s-23.785-17.514-57.083 0c-33.299 17.515-67.679 27.461-85.625 57.084-17.947 29.622-59.246 48.218-85.625 57.083-26.38 8.865-74.165 57.083 0 57.083z" fill="#361d44"/>
</g>
<g fill="#361d44" style="isolation:isolate">
<path d="m375.8 484.58l-23.785 142.71h47.569l-23.784-142.71z"/>
<path d="m337.74 441.77l-23.785 142.71h47.57l-23.785-142.71z"/>
<path d="m290.17 427.5l-23.785 142.71h47.569l-23.784-142.71z"/>
<path d="m313.96 456.04l-23.784 142.71h47.569l-23.785-142.71z"/>
<path d="m252.12 356.15l-23.785 142.71h47.57l-23.785-142.71z"/>
<path d="m23.785 170.62l-23.785 142.71h47.569l-23.784-142.71z"/>
<path d="m47.569 213.44l-23.784 142.71h47.569l-23.785-142.71z"/>
<path d="m80.868 241.98l-23.785 142.71h47.57l-23.785-142.71z"/>
<path d="m118.92 270.52l-23.785 142.71h47.569l-23.784-142.71z"/>
<path d="m228.33 341.88l-23.784 142.71h47.569l-23.785-142.71z"/>
<path d="m199.79 327.6l-23.785 142.71h47.569l-23.784-142.71z"/>
<path d="m179.14 344.82l-23.784 142.71h47.569l-23.785-142.71z"/>
<path d="m152.22 313.33l-23.784 142.71h47.569l-23.785-142.71z"/>
<path d="m1341.5 284.79l-23.784 142.71h47.569l-23.785-142.71z"/>
<path d="m918.09 470.31l-23.784 142.71h47.569l-23.785-142.71z"/>
<path d="m946.63 441.77l-23.785 142.71h47.57l-23.785-142.71z"/>
<path d="m975.17 470.31l-23.785 142.71h47.569l-23.784-142.71z"/>
<path d="m1003.7 398.96l-23.784 142.71h47.569l-23.785-142.71z"/>
<path d="m1032.3 370.42l-23.785 142.71h47.57l-23.785-142.71z"/>
<path d="m1065.6 384.69l-23.785 142.71h47.569l-23.784-142.71z"/>
<path d="m1308.2 327.6l-23.785 142.71h47.569l-23.784-142.71z"/>
<path d="m1260.6 313.33l-23.784 142.71h47.569l-23.785-142.71z"/>
<path d="m1222.5 344.82l-23.785 142.71h47.569l-23.784-142.71z"/>
<path d="m1175 398.96l-23.784 142.71h47.569l-23.785-142.71z"/>
<path d="m1089.3 341.88l-23.784 142.71h47.569l-23.785-142.71z"/>
</g>
</g>
</svg>
