<?xml version="1.0" encoding="UTF-8"?>
<svg style="isolation:isolate" viewBox="0 0 1370 770" xmlns="http://www.w3.org/2000/svg">
<g style="isolation:isolate">
<defs>
<filter id="b" x="-200%" y="-200%" width="400%" height="400%">
<feGaussianBlur stdDeviation="8.587218125678056" xmlns="http://www.w3.org/2000/svg"/>
</filter>
</defs>
<g filter="url(#b)">
<path d="m483.44 510.69c22.837 0-85.312 57.306-85.312 85.312 0 28.007-100.61 28.438-142.19 28.438-41.579 0-142.19 18.312-142.19 56.875q0 38.563-78.75 18.682v-190q425.6 0.693 448.44 0.693z" fill="#4a2050" fill-opacity=".5"/>
</g>
<path d="m483.44 510.69c22.837 0-85.312-57.306-85.312-85.313 0-28.006-100.61-28.437-142.19-28.437-41.579 0-142.19-18.312-142.19-56.875q0-38.563-113.75-56.875v369.69h85.312q90.053-18.743 85.313-56.875c-4.74-38.132 166.96-24.775 199.06-56.875 32.1-32.1 90.914-28.437 113.75-28.437z" fill="#4a2050"/>
<g fill="#4a2050" style="isolation:isolate">
<path d="m797.7 429.65l-13.034 78.203h26.068l-13.034-78.203z"/>
<path d="m1057 379.88l-13.034 78.203h26.067l-13.033-78.203z"/>
<path d="m1015.5 418.98l-13.034 78.203h26.068l-13.034-78.203z"/>
<path d="m974.01 418.98l-13.034 78.203h26.068l-13.034-78.203z"/>
<path d="m901.97 429.65l-13.034 78.203h26.068l-13.034-78.203z"/>
<path d="m947.94 408.32l-13.034 78.203h26.068l-13.034-78.203z"/>
<path d="m921.87 426.09l-13.033 78.203h26.067l-13.034-78.203z"/>
<path d="m872.94 429.65l-13.034 78.203h26.068l-13.034-78.203z"/>
<path d="m1356.7 323l-13.034 78.203h26.068l-13.034-78.203z"/>
<path d="m1297.5 330.12l-13.033 78.203h26.067l-13.034-78.203z"/>
<path d="m1240.6 347.89l-13.033 78.203h26.067l-13.034-78.203z"/>
<path d="m1199.1 347.89l-13.034 78.203h26.068l-13.034-78.203z"/>
<path d="m1113.8 401.21l-13.034 78.203h26.067l-13.033-78.203z"/>
<path d="m1139.9 362.11l-13.034 78.203h26.068l-13.034-78.203z"/>
<path d="m1173.1 347.89l-13.034 78.203h26.068l-13.034-78.203z"/>
<path d="m1323.6 323l-13.034 78.203h26.068l-13.034-78.203z"/>
<path d="m1212.2 362.11l-13.034 78.203h26.068l-13.034-78.203z"/>
<path d="m1152.9 347.89l-13.034 78.203h26.068l-13.034-78.203z"/>
<path d="m1271.4 362.11l-13.034 78.203h26.068l-13.034-78.203z"/>
<path d="m960.97 426.09l-13.034 78.203h26.068l-13.034-78.203z"/>
<path d="m1041.5 390.54l-13.034 78.203h26.068l-13.034-78.203z"/>
<path d="m888.7 426.09l-13.034 78.203h26.068l-13.034-78.203z"/>
<path d="m1100.8 369.22l-13.034 78.203h26.068l-13.034-78.203z"/>
<path d="m341.01 351.44l-13.034 78.203h26.068l-13.034-78.203z"/>
<path d="m15.167 244.8l-13.034 78.203h26.068l-13.034-78.203z"/>
<path d="m85.076 283.9l-13.034 78.203h26.067l-13.033-78.203z"/>
<path d="m314.94 369.22l-13.034 78.203h26.068l-13.034-78.203z"/>
<path d="m367.08 362.11l-13.034 78.203h26.068l-13.034-78.203z"/>
<path d="m393.15 408.32l-13.033 78.203h26.067l-13.034-78.203z"/>
<path d="m439.36 429.65l-13.033 78.203h26.067l-13.034-78.203z"/>
<path d="m297.17 347.89l-13.034 78.203h26.068l-13.034-78.203z"/>
<path d="m41.234 244.8l-13.033 78.203h26.067l-13.034-78.203z"/>
<path d="m59.008 269.68l-13.034 78.203h26.068l-13.034-78.203z"/>
<path d="m111.14 312.34l-13.034 78.203h26.068l-13.034-78.203z"/>
<path d="m137.21 330.12l-13.034 78.203h26.068l-13.034-78.203z"/>
<path d="m150.24 351.44l-13.034 78.203h26.068l-13.034-78.203z"/>
<path d="m271.1 362.11l-13.034 78.203h26.068l-13.034-78.203z"/>
<path d="m245.04 347.89l-13.033 78.203h26.067l-13.034-78.203z"/>
<path d="m218.97 340.78l-13.034 78.203h26.068l-13.034-78.203z"/>
<path d="m232 379.88l-13.034 78.203h26.067l-13.033-78.203z"/>
<path d="m192.9 347.89l-13.034 78.203h26.068l-13.034-78.203z"/>
<path d="m176.31 330.12l-13.033 78.203h26.067l-13.034-78.203z"/>
</g>
<defs>
<filter id="a" x="-200%" y="-200%" width="400%" height="400%">
<feGaussianBlur stdDeviation="8.587218125678056" xmlns="http://www.w3.org/2000/svg"/>
</filter>
</defs>
<g filter="url(#a)">
<path d="m772.81 511.08q69.021 0 499.08-0.385l-1.897 119.31q-143.22-0.6-212.81-33.61c-69.594-33.01-353.4-85.312-284.38-85.312z" fill="#4a2050" fill-opacity=".5"/>
</g>
<path d="m772.81 510.69c69.022 0 269.37 1.143 227.5 28.437q-41.87 27.294 113.75 28.438 262.23-3.716 199.06 28.437t56.875 28.438v-255.94q-243.22 23.865-312.81 56.875c-69.593 33.011-353.4 85.313-284.38 85.313z" fill="#4a2050"/>
</g>
</svg>
