<?xml version="1.0" standalone="no"?><!-- Generator: Gravit.io --><svg xmlns="http://www.w3.org/2000/svg" xmlns:xlink="http://www.w3.org/1999/xlink" style="isolation:isolate" viewBox="0 0 40 40" width="40" height="40"><path d=" M 4 6 C 4 4.896 4.896 4 6 4 C 7.104 4 8 4.896 8 6 C 8 7.104 7.104 8 6 8 C 4.896 8 4 7.104 4 6 Z " fill="rgb(255,255,255)"/><path d=" M 8.962 39.922 L 0.66 39.922 L 0.66 13.269 L 8.962 13.269 L 8.962 39.922 Z  M 4.811 9.622 C 2.173 9.622 0 7.449 0 4.811 C 0 2.173 2.134 0 4.811 0 C 7.449 0 9.622 2.134 9.622 4.811 C 9.622 7.449 7.488 9.622 4.811 9.622 Z  M 40 39.922 L 31.736 39.922 L 31.736 26.964 C 31.736 23.86 31.697 19.903 27.43 19.903 C 23.123 19.903 22.464 23.278 22.464 26.731 L 22.464 39.922 L 14.161 39.922 L 14.161 13.269 L 22.114 13.269 L 22.114 16.916 L 22.231 16.916 C 23.317 14.821 26.033 12.609 30.068 12.609 C 38.448 12.609 40 18.118 40 25.296 L 40 39.922 L 40 39.922 Z " fill="rgb(255,255,255)"/></svg>