<svg xmlns="http://www.w3.org/2000/svg" xmlns:xlink="http://www.w3.org/1999/xlink" style="isolation:isolate" viewBox="0 0 150 150" width="150" height="150"><g style="isolation:isolate" id="TI"><path d=" M 55 137.5 L 90 102.5 L 90 42.5 L 125 7.5 L 55 7.5 L 20 42.5 L 55 42.5 L 55 137.5 Z " fill="none" vector-effect="non-scaling-stroke" stroke-width="2" stroke="rgb(256,256,256)" stroke-linejoin="miter" stroke-linecap="square" stroke-miterlimit="3"/><path d=" M 100 107.5 L 65 142.5 L 100 107.5 L 100 47.5 L 135 12.5" fill="none" vector-effect="non-scaling-stroke" stroke-width="2" stroke="rgb(256,256,256)" stroke-linejoin="miter" stroke-linecap="square" stroke-miterlimit="3"/><path d=" M 60 30 C 60 23.101 65.601 17.5 72.5 17.5 C 79.399 17.5 85 23.101 85 30 C 85 36.899 79.399 42.5 72.5 42.5 C 65.601 42.5 60 36.899 60 30 Z " fill="none" vector-effect="non-scaling-stroke" stroke-width="2" stroke="rgb(256,256,256)" stroke-linejoin="miter" stroke-linecap="square" stroke-miterlimit="3"/><line x1="67.5" y1="107.5" x2="77.5" y2="97.5" vector-effect="non-scaling-stroke" stroke-width="2" stroke="rgb(256,256,256)" stroke-linejoin="miter" stroke-linecap="square" stroke-miterlimit="3"/><line x1="67.5" y1="92.5" x2="77.5" y2="82.5" vector-effect="non-scaling-stroke" stroke-width="2" stroke="rgb(256,256,256)" stroke-linejoin="miter" stroke-linecap="square" stroke-miterlimit="3"/><line x1="67.5" y1="77.5" x2="77.5" y2="67.5" vector-effect="non-scaling-stroke" stroke-width="2" stroke="rgb(256,256,256)" stroke-linejoin="miter" stroke-linecap="square" stroke-miterlimit="3"/></g></svg>